<svg xmlns="http://www.w3.org/2000/svg" xmlns:xlink="http://www.w3.org/1999/xlink" width="500" zoomAndPan="magnify" viewBox="0 0 375 374.999991" height="500" preserveAspectRatio="xMidYMid meet" version="1.0"><path fill="#000000" d="M 187.5 0 C 84.375 0 0 84.375 0 187.5 C 0 290.625 84.375 375 187.5 375 C 290.625 375 375 290.625 375 187.5 C 375 84.375 290.625 0 187.5 0 Z M 211.875 273.75 L 178.125 273.75 L 178.125 140.625 L 136.875 153.75 L 136.875 125.625 L 208.125 99.375 L 211.875 99.375 Z M 337.5 187.5 C 337.5 270.335938 270.335938 337.5 187.5 337.5 C 104.664062 337.5 37.5 270.335938 37.5 187.5 C 37.5 104.664062 104.664062 37.5 187.5 37.5 C 270.335938 37.5 337.5 104.664062 337.5 187.5 Z M 337.5 187.5 " fill-opacity="1" fill-rule="nonzero"/></svg>