<svg xmlns="http://www.w3.org/2000/svg" xmlns:xlink="http://www.w3.org/1999/xlink" width="500" zoomAndPan="magnify" viewBox="0 0 375 374.999991" height="500" preserveAspectRatio="xMidYMid meet" version="1.0"><path fill="#000000" d="M 187.5 0 C 83.953125 0 0 83.953125 0 187.5 C 0 291.046875 83.953125 375 187.5 375 C 291.046875 375 375 291.046875 375 187.5 C 375 83.953125 291.046875 0 187.5 0 Z M 186.75 268.515625 C 152.359375 268.515625 129.078125 249.5 127.6875 220.453125 L 158.5625 220.453125 C 159.53125 233.484375 170.53125 241.703125 187.078125 241.703125 C 203.203125 241.703125 214.421875 232.625 214.421875 219.484375 C 214.421875 206.03125 203.84375 197.6875 186.546875 197.6875 L 167.421875 197.6875 L 167.421875 173.65625 L 186.21875 173.65625 C 200.859375 173.65625 210.78125 165.109375 210.78125 152.5 C 210.78125 140.109375 201.171875 132.203125 186.109375 132.203125 C 171.15625 132.203125 161.21875 140.640625 160.375 154 L 130.578125 154 C 131.640625 124.84375 153.328125 106.46875 186.96875 106.46875 C 218.578125 106.46875 241.328125 123.765625 241.328125 148.015625 C 241.328125 165.859375 230.109375 179.734375 212.921875 183.265625 L 212.921875 185.1875 C 234.078125 187.53125 247.3125 201.640625 247.3125 221.9375 C 247.3125 248.96875 221.890625 268.515625 186.75 268.515625 Z M 343.75 187.5 C 343.75 273.796875 273.796875 343.75 187.5 343.75 C 101.203125 343.75 31.25 273.796875 31.25 187.5 C 31.25 101.203125 101.203125 31.25 187.5 31.25 C 273.796875 31.25 343.75 101.203125 343.75 187.5 Z M 343.75 187.5 " fill-opacity="1" fill-rule="nonzero"/></svg>