<svg xmlns="http://www.w3.org/2000/svg" xmlns:xlink="http://www.w3.org/1999/xlink" width="500" zoomAndPan="magnify" viewBox="0 0 375 374.999991" height="500" preserveAspectRatio="xMidYMid meet" version="1.0"><path fill="#000000" d="M 187.5 0 C 83.953125 0 0 83.953125 0 187.5 C 0 291.046875 83.953125 375 187.5 375 C 291.046875 375 375 291.046875 375 187.5 C 375 83.953125 291.046875 0 187.5 0 Z M 244 265.625 L 132.8125 265.625 L 132.8125 243.09375 L 183.125 193.859375 C 204.8125 172.703125 210.25 164.703125 210.25 154.65625 C 210.25 142.265625 200.203125 133.5 186.109375 133.5 C 171.15625 133.5 160.90625 143.328125 160.90625 157.53125 L 160.90625 158.171875 L 131 158.171875 L 131 157.640625 C 131 127.84375 153.859375 107.546875 187.1875 107.546875 C 219.34375 107.546875 241.765625 126.03125 241.765625 152.515625 C 241.765625 169.28125 232.6875 183.703125 205.984375 208.8125 L 176.5 236.90625 L 176.5 238.828125 L 244 238.828125 Z M 343.75 187.5 C 343.75 273.796875 273.796875 343.75 187.5 343.75 C 101.203125 343.75 31.25 273.796875 31.25 187.5 C 31.25 101.203125 101.203125 31.25 187.5 31.25 C 273.796875 31.25 343.75 101.203125 343.75 187.5 Z M 343.75 187.5 " fill-opacity="1" fill-rule="nonzero"/></svg>