<svg xmlns="http://www.w3.org/2000/svg" xmlns:xlink="http://www.w3.org/1999/xlink" width="1920" zoomAndPan="magnify" viewBox="0 0 1440 809.999993" height="1080" preserveAspectRatio="xMidYMid meet" version="1.0"><path fill="#000000" d="M 557.648438 469.824219 C 552.300781 499.6875 555.660156 523.949219 574.066406 543.484375 C 603.667969 575.171875 633.972656 606.109375 664.984375 636.304688 C 666.402344 637.554688 667.746094 638.878906 669.015625 640.28125 C 670.28125 641.683594 671.46875 643.15625 672.566406 644.691406 C 673.667969 646.230469 674.679688 647.824219 675.597656 649.476562 C 676.515625 651.128906 677.335938 652.832031 678.0625 654.578125 C 678.789062 656.324219 679.410156 658.105469 679.933594 659.921875 C 680.457031 661.742188 680.875 663.582031 681.183594 665.445312 C 681.496094 667.3125 681.703125 669.1875 681.800781 671.078125 C 681.898438 672.964844 681.890625 674.855469 681.773438 676.742188 C 679.660156 715.3125 678.042969 753.886719 676.050781 792.457031 C 676.050781 800.917969 674.1875 809.503906 663.617188 810.125 C 655.28125 810.125 648.9375 803.65625 649.4375 791.710938 C 650.308594 765.457031 652.546875 739.203125 654.289062 712.824219 C 654.289062 710.585938 655.035156 708.222656 655.28125 705.855469 C 658.765625 670.769531 654.164062 659.820312 626.054688 639.042969 C 624.210938 637.761719 622.238281 636.746094 620.128906 635.984375 C 618.019531 635.226562 615.851562 634.75 613.617188 634.5625 C 594.960938 632.445312 576.304688 631.203125 557.648438 629.085938 C 555.335938 628.8125 553.015625 628.78125 550.695312 629.003906 C 548.375 629.226562 546.105469 629.691406 543.882812 630.398438 C 541.664062 631.105469 539.542969 632.042969 537.523438 633.207031 C 535.503906 634.371094 533.628906 635.734375 531.902344 637.300781 C 482.898438 677.777344 434.019531 718.339844 385.265625 758.984375 C 383.027344 760.851562 381.160156 763.09375 378.796875 764.957031 C 370.339844 771.800781 361.882812 772.425781 357.03125 766.328125 C 356.6875 765.9375 356.363281 765.53125 356.0625 765.105469 C 355.761719 764.683594 355.480469 764.242188 355.222656 763.789062 C 354.96875 763.335938 354.738281 762.871094 354.527344 762.394531 C 354.320312 761.917969 354.140625 761.429688 353.980469 760.933594 C 353.824219 760.4375 353.695312 759.933594 353.589844 759.421875 C 353.488281 758.910156 353.410156 758.398438 353.359375 757.878906 C 353.308594 757.359375 353.285156 756.839844 353.292969 756.320312 C 353.296875 755.800781 353.328125 755.28125 353.386719 754.761719 C 353.445312 754.246094 353.527344 753.734375 353.640625 753.222656 C 353.753906 752.714844 353.890625 752.214844 354.054688 751.71875 C 354.21875 751.226562 354.410156 750.742188 354.625 750.269531 C 354.839844 749.792969 355.078125 749.332031 355.34375 748.882812 C 355.605469 748.433594 355.894531 748 356.203125 747.578125 C 356.511719 747.160156 356.839844 746.757812 357.191406 746.375 C 357.542969 745.988281 357.914062 745.625 358.300781 745.277344 C 358.691406 744.933594 359.097656 744.609375 359.519531 744.304688 C 379.792969 725.765625 400.066406 706.976562 421.707031 689.683594 C 451.058594 665.542969 482.027344 643.148438 511.132812 618.636719 C 513.007812 617.019531 514.972656 615.515625 517.019531 614.121094 C 519.066406 612.726562 521.1875 611.449219 523.378906 610.296875 C 525.570312 609.140625 527.820312 608.113281 530.125 607.214844 C 532.433594 606.3125 534.785156 605.546875 537.179688 604.914062 C 539.574219 604.28125 541.996094 603.78125 544.449219 603.421875 C 546.898438 603.0625 549.363281 602.84375 551.835938 602.761719 C 554.3125 602.683594 556.785156 602.742188 559.253906 602.941406 C 561.722656 603.140625 564.171875 603.476562 566.601562 603.953125 C 573.941406 605.199219 581.527344 605.820312 592.96875 607.1875 C 579.664062 592.507812 569.464844 579.941406 557.898438 568.867188 C 533.894531 545.972656 528.667969 516.484375 527.175781 485.503906 C 527.15625 480.800781 527.820312 476.195312 529.167969 471.691406 C 529.285156 471.003906 529.421875 470.316406 529.582031 469.636719 C 529.746094 468.957031 529.929688 468.28125 530.132812 467.613281 C 530.335938 466.945312 530.5625 466.285156 530.808594 465.632812 C 531.058594 464.976562 531.324219 464.332031 531.613281 463.695312 C 531.902344 463.058594 532.214844 462.433594 532.542969 461.816406 C 532.871094 461.199219 533.222656 460.59375 533.589844 460 C 533.957031 459.40625 534.34375 458.824219 534.75 458.257812 C 535.15625 457.6875 535.582031 457.132812 536.023438 456.589844 C 536.464844 456.046875 536.925781 455.523438 537.398438 455.011719 C 537.875 454.5 538.367188 454.003906 538.875 453.523438 C 539.382812 453.042969 539.90625 452.578125 540.445312 452.132812 C 540.980469 451.6875 541.535156 451.257812 542.097656 450.847656 C 542.664062 450.4375 543.242188 450.042969 543.832031 449.671875 C 544.425781 449.296875 545.027344 448.941406 545.640625 448.609375 C 546.253906 448.273438 546.878906 447.960938 547.511719 447.664062 C 548.144531 447.371094 548.789062 447.097656 549.441406 446.847656 C 550.089844 446.59375 550.75 446.363281 551.417969 446.152344 C 552.082031 445.941406 552.757812 445.753906 553.433594 445.585938 C 554.113281 445.421875 554.796875 445.277344 555.484375 445.152344 C 556.171875 445.03125 556.863281 444.929688 557.558594 444.851562 C 558.253906 444.773438 558.949219 444.71875 559.648438 444.6875 C 560.34375 444.652344 561.042969 444.644531 561.742188 444.65625 C 562.441406 444.667969 563.136719 444.703125 563.835938 444.761719 C 564.53125 444.816406 565.226562 444.898438 565.917969 445 C 566.609375 445.101562 567.296875 445.226562 567.976562 445.375 C 568.660156 445.519531 569.339844 445.6875 570.011719 445.878906 C 570.683594 446.070312 571.351562 446.28125 572.007812 446.515625 C 572.667969 446.746094 573.316406 447.003906 573.960938 447.277344 C 574.601562 447.554688 575.234375 447.847656 575.859375 448.164062 C 576.480469 448.480469 577.09375 448.816406 577.695312 449.171875 C 578.296875 449.53125 578.886719 449.90625 579.464844 450.296875 C 580.039062 450.691406 580.605469 451.105469 581.15625 451.535156 C 588.351562 456.65625 594.800781 462.585938 600.507812 469.324219 C 606.210938 476.066406 610.996094 483.40625 614.859375 491.351562 C 618.839844 498.816406 623.070312 506.28125 627.296875 513.746094 L 631.527344 512.253906 C 627.796875 473.308594 624.0625 434.363281 620.207031 392.804688 C 602.546875 402.386719 587.375 410.722656 571.953125 418.9375 C 561.753906 424.535156 550.808594 432.375 539.488281 423.789062 C 528.171875 415.203125 531.03125 401.515625 534.015625 391.066406 C 539.582031 374.472656 546.339844 358.378906 554.289062 342.789062 C 557.898438 334.824219 563.246094 327.609375 566.726562 319.519531 C 566.925781 318.582031 567.015625 317.636719 566.996094 316.679688 C 566.976562 315.722656 566.847656 314.777344 566.613281 313.851562 C 566.375 312.921875 566.035156 312.035156 565.589844 311.183594 C 565.148438 310.335938 564.617188 309.546875 563.992188 308.820312 C 563.265625 308.433594 562.5 308.140625 561.699219 307.941406 C 560.902344 307.742188 560.089844 307.640625 559.265625 307.640625 C 558.441406 307.640625 557.628906 307.742188 556.828125 307.941406 C 556.03125 308.140625 555.265625 308.433594 554.539062 308.820312 C 517.226562 329.476562 488.621094 355.851562 485.761719 401.640625 C 484.640625 421.546875 482.773438 441.457031 482.652344 461.238281 C 482.726562 463.375 482.65625 465.503906 482.4375 467.628906 C 482.21875 469.757812 481.855469 471.855469 481.34375 473.929688 C 480.832031 476.003906 480.179688 478.035156 479.386719 480.015625 C 478.589844 482 477.664062 483.917969 476.601562 485.773438 C 475.542969 487.628906 474.359375 489.402344 473.050781 491.089844 C 471.742188 492.78125 470.324219 494.371094 468.796875 495.863281 C 467.269531 497.355469 465.644531 498.734375 463.921875 500 C 462.203125 501.265625 460.402344 502.40625 458.523438 503.417969 C 417.601562 527.183594 376.0625 550.078125 334.148438 573.097656 C 332.710938 574.113281 331.15625 574.886719 329.476562 575.417969 C 327.800781 575.949219 326.082031 576.210938 324.320312 576.207031 C 319.472656 575.335938 312.632812 573.46875 311.136719 570.109375 C 310.761719 568.792969 310.523438 567.453125 310.417969 566.089844 C 310.3125 564.726562 310.347656 563.363281 310.519531 562.007812 C 310.6875 560.648438 310.996094 559.320312 311.433594 558.023438 C 311.875 556.730469 312.4375 555.492188 313.128906 554.308594 C 317.082031 549.929688 321.765625 546.570312 327.183594 544.230469 C 361.632812 524.074219 396.085938 504.164062 431.285156 485.253906 C 433.144531 484.429688 434.933594 483.46875 436.648438 482.375 C 438.363281 481.28125 439.988281 480.066406 441.519531 478.726562 C 443.050781 477.386719 444.476562 475.9375 445.789062 474.386719 C 447.101562 472.832031 448.292969 471.1875 449.359375 469.453125 C 450.421875 467.71875 451.351562 465.914062 452.144531 464.039062 C 452.9375 462.164062 453.585938 460.242188 454.089844 458.269531 C 454.59375 456.296875 454.945312 454.296875 455.144531 452.273438 C 455.347656 450.246094 455.394531 448.21875 455.289062 446.183594 C 453.761719 423.898438 455.339844 401.832031 460.015625 379.992188 C 461.71875 374.539062 462.972656 368.984375 463.769531 363.328125 C 464.570312 357.667969 464.90625 351.984375 464.777344 346.273438 C 464.652344 340.5625 464.0625 334.898438 463.015625 329.28125 C 461.964844 323.667969 460.46875 318.171875 458.523438 312.800781 C 457.257812 308.273438 456.394531 303.667969 455.9375 298.984375 C 455.476562 294.304688 455.429688 289.621094 455.789062 284.929688 C 456.148438 280.242188 456.914062 275.621094 458.082031 271.0625 C 459.253906 266.507812 460.808594 262.089844 462.75 257.804688 C 463.136719 256.964844 463.457031 256.097656 463.703125 255.207031 C 463.949219 254.3125 464.121094 253.40625 464.21875 252.484375 C 464.316406 251.5625 464.339844 250.640625 464.289062 249.714844 C 464.238281 248.792969 464.109375 247.878906 463.910156 246.972656 C 463.710938 246.070312 463.4375 245.1875 463.089844 244.328125 C 462.746094 243.46875 462.335938 242.640625 461.855469 241.847656 C 461.378906 241.054688 460.835938 240.308594 460.234375 239.601562 C 459.632812 238.898438 458.980469 238.246094 458.273438 237.648438 C 416.980469 193.726562 376.0625 149.308594 335.144531 105.136719 L 331.410156 101.28125 C 325.816406 95.308594 322.582031 88.839844 328.300781 81 C 334.023438 73.160156 341.734375 75.277344 349.820312 83.238281 C 365.367188 98.296875 380.289062 113.972656 395.214844 129.773438 C 422.082031 158.265625 448.324219 187.507812 475.808594 215.378906 C 491.234375 230.804688 497.203125 245.984375 488.246094 267.136719 C 487.261719 269.207031 486.402344 271.324219 485.667969 273.492188 C 484.933594 275.660156 484.328125 277.867188 483.851562 280.105469 C 483.375 282.347656 483.035156 284.605469 482.824219 286.886719 C 482.613281 289.167969 482.539062 291.453125 482.597656 293.742188 C 482.65625 296.03125 482.851562 298.308594 483.179688 300.578125 C 483.503906 302.84375 483.964844 305.082031 484.554688 307.296875 C 485.144531 309.507812 485.863281 311.679688 486.710938 313.804688 C 487.558594 315.933594 488.527344 318.003906 489.617188 320.019531 C 502.054688 310.6875 512.875 301.605469 524.6875 292.894531 C 530.359375 288.710938 536.414062 285.1875 542.847656 282.316406 C 544.375 281.441406 545.957031 280.6875 547.597656 280.050781 C 549.238281 279.417969 550.917969 278.910156 552.636719 278.53125 C 554.355469 278.152344 556.089844 277.90625 557.847656 277.796875 C 559.601562 277.683594 561.355469 277.703125 563.109375 277.859375 C 564.859375 278.011719 566.589844 278.300781 568.300781 278.71875 C 570.007812 279.136719 571.675781 279.683594 573.300781 280.359375 C 574.925781 281.03125 576.492188 281.824219 577.996094 282.738281 C 579.5 283.648438 580.925781 284.671875 582.273438 285.800781 C 583.742188 287.03125 585.105469 288.371094 586.363281 289.820312 C 587.617188 291.269531 588.75 292.808594 589.761719 294.4375 C 590.773438 296.066406 591.648438 297.765625 592.386719 299.535156 C 593.128906 301.304688 593.722656 303.121094 594.171875 304.984375 C 594.625 306.847656 594.921875 308.734375 595.074219 310.644531 C 595.222656 312.558594 595.21875 314.46875 595.066406 316.378906 C 594.910156 318.292969 594.605469 320.179688 594.148438 322.039062 C 593.695312 323.902344 593.09375 325.71875 592.347656 327.484375 C 588.148438 337.164062 583.214844 346.457031 577.546875 355.355469 L 559.390625 389.199219 L 563.121094 392.683594 C 580.535156 382.851562 598.195312 373.148438 615.480469 362.945312 C 616.75 361.828125 617.800781 360.53125 618.628906 359.0625 C 619.460938 357.589844 620.027344 356.023438 620.332031 354.359375 C 621.824219 349.257812 622.199219 343.90625 623.441406 338.804688 C 630.28125 309.070312 645.332031 298.992188 676.425781 303.84375 C 678.292969 301.851562 680.40625 299.238281 682.769531 296.75 C 683.628906 295.753906 684.535156 294.800781 685.488281 293.890625 C 686.441406 292.980469 687.433594 292.117188 688.46875 291.304688 C 689.503906 290.488281 690.578125 289.726562 691.6875 289.015625 C 692.796875 288.308594 693.9375 287.652344 695.109375 287.054688 C 696.285156 286.453125 697.484375 285.914062 698.707031 285.429688 C 699.933594 284.945312 701.179688 284.523438 702.445312 284.160156 C 703.710938 283.796875 704.992188 283.496094 706.289062 283.257812 C 707.582031 283.019531 708.886719 282.847656 710.199219 282.734375 C 711.511719 282.621094 712.828125 282.574219 714.144531 282.589844 C 715.460938 282.605469 716.773438 282.683594 718.082031 282.824219 C 719.390625 282.96875 720.691406 283.171875 721.980469 283.441406 C 723.269531 283.710938 724.542969 284.039062 725.800781 284.433594 C 727.058594 284.824219 728.292969 285.277344 729.507812 285.789062 C 730.722656 286.300781 731.910156 286.867188 733.066406 287.496094 C 734.226562 288.121094 735.351562 288.804688 736.445312 289.539062 C 737.535156 290.273438 738.589844 291.0625 739.609375 291.898438 C 744.085938 295.132812 749.683594 299.738281 754.410156 299.363281 C 775.054688 297.996094 785.378906 310.3125 793.585938 326.238281 C 796.445312 331.964844 798.5625 337.933594 800.675781 342.914062 C 810.976562 340.625 821.382812 339.960938 831.894531 340.921875 C 841.144531 345.152344 849.4375 350.792969 856.769531 357.84375 C 862.863281 354.109375 870.078125 348.886719 877.789062 345.402344 C 886.011719 340.871094 894.636719 337.304688 903.65625 334.699219 C 921.441406 330.097656 932.140625 341.667969 927.289062 359.585938 C 925.796875 365.183594 922.5625 370.285156 920.820312 375.886719 C 916.21875 389.695312 911.246094 403.507812 908.382812 417.691406 C 907.929688 419.042969 907.558594 420.417969 907.269531 421.816406 C 906.980469 423.214844 906.777344 424.625 906.660156 426.046875 C 906.542969 427.46875 906.511719 428.894531 906.566406 430.320312 C 906.621094 431.746094 906.761719 433.164062 906.988281 434.574219 C 907.214844 435.984375 907.527344 437.375 907.921875 438.746094 C 908.316406 440.117188 908.792969 441.457031 909.351562 442.773438 C 909.90625 444.085938 910.542969 445.363281 911.253906 446.597656 C 911.96875 447.835938 912.75 449.023438 913.609375 450.164062 C 917.484375 444.835938 920.84375 439.195312 923.683594 433.246094 C 933.257812 406.742188 942.710938 380.363281 951.167969 353.613281 C 952.210938 350.324219 953.078125 346.992188 953.773438 343.613281 C 954.46875 340.234375 954.988281 336.828125 955.328125 333.394531 C 955.667969 329.964844 955.832031 326.523438 955.816406 323.074219 C 955.800781 319.625 955.605469 316.183594 955.230469 312.753906 C 954.855469 309.324219 954.304688 305.925781 953.578125 302.554688 C 952.851562 299.179688 951.953125 295.855469 950.878906 292.578125 C 949.808594 289.300781 948.566406 286.085938 947.160156 282.9375 C 945.753906 279.789062 944.1875 276.71875 942.460938 273.734375 C 922.4375 237.402344 930.023438 229.4375 956.765625 207.042969 C 1002.910156 168.222656 1048.679688 128.777344 1094.570312 89.710938 C 1098.964844 84.945312 1104.105469 81.210938 1109.996094 78.511719 C 1111.414062 78.078125 1112.867188 77.808594 1114.347656 77.707031 C 1115.828125 77.605469 1117.304688 77.671875 1118.769531 77.910156 C 1120.238281 78.148438 1121.65625 78.546875 1123.03125 79.113281 C 1124.40625 79.675781 1125.699219 80.386719 1126.910156 81.25 C 1127.527344 82.605469 1127.992188 84.015625 1128.308594 85.472656 C 1128.625 86.929688 1128.78125 88.40625 1128.78125 89.894531 C 1128.78125 91.386719 1128.625 92.863281 1128.308594 94.320312 C 1127.992188 95.777344 1127.527344 97.1875 1126.910156 98.542969 C 1124.796875 103.394531 1119.074219 106.878906 1114.472656 110.984375 L 968.828125 235.410156 C 965.347656 238.394531 961.617188 241.132812 957.511719 244.492188 C 969.949219 270.746094 984.875 295.507812 982.386719 323.75 C 979.898438 351.996094 972.683594 377.503906 967.335938 405.621094 L 985.371094 413.835938 C 987.285156 414.558594 989.136719 415.417969 990.929688 416.410156 C 992.722656 417.398438 994.433594 418.511719 996.066406 419.75 C 997.695312 420.984375 999.234375 422.332031 1000.671875 423.789062 C 1002.113281 425.242188 1003.441406 426.792969 1004.65625 428.441406 C 1005.875 430.085938 1006.96875 431.8125 1007.941406 433.613281 C 1008.910156 435.417969 1009.75 437.277344 1010.453125 439.203125 C 1011.160156 441.125 1011.722656 443.085938 1012.144531 445.089844 C 1012.570312 447.09375 1012.847656 449.117188 1012.984375 451.160156 C 1013.300781 452.304688 1013.507812 453.464844 1013.605469 454.644531 C 1009.875 481.023438 1025.171875 497.199219 1043.828125 511.632812 C 1066.589844 529.175781 1088.976562 547.09375 1111.613281 564.761719 L 1117.082031 569.238281 C 1128.277344 578.570312 1130.890625 587.15625 1124.796875 594.125 C 1118.699219 601.09375 1110.242188 600.097656 1099.921875 591.636719 C 1069.449219 566.75 1039.351562 541.867188 1009.128906 516.980469 C 1007.304688 515.488281 1005.578125 513.894531 1003.945312 512.199219 C 1002.308594 510.503906 1000.777344 508.71875 999.351562 506.847656 C 997.925781 504.972656 996.617188 503.019531 995.417969 500.992188 C 994.21875 498.964844 993.144531 496.875 992.191406 494.71875 C 991.242188 492.566406 990.417969 490.363281 989.722656 488.113281 C 989.027344 485.863281 988.464844 483.582031 988.039062 481.265625 C 987.609375 478.949219 987.320312 476.617188 987.164062 474.265625 C 987.007812 471.914062 986.992188 469.5625 987.113281 467.210938 C 987.113281 442.328125 983.132812 438.222656 955.769531 431.625 C 953.660156 436.726562 951.300781 441.703125 948.679688 446.558594 C 944.171875 455.519531 938.65625 463.816406 932.140625 471.441406 C 931.792969 471.855469 931.4375 472.253906 931.066406 472.644531 C 930.695312 473.035156 930.316406 473.410156 929.921875 473.777344 C 929.53125 474.144531 929.125 474.5 928.710938 474.839844 C 928.296875 475.183594 927.875 475.511719 927.441406 475.828125 C 927.003906 476.144531 926.5625 476.449219 926.109375 476.738281 C 925.65625 477.027344 925.195312 477.304688 924.726562 477.566406 C 924.257812 477.828125 923.78125 478.074219 923.296875 478.304688 C 922.8125 478.539062 922.324219 478.757812 921.824219 478.960938 C 921.328125 479.164062 920.824219 479.351562 920.316406 479.523438 C 919.808594 479.695312 919.296875 479.855469 918.777344 479.996094 C 918.257812 480.136719 917.738281 480.261719 917.210938 480.371094 C 916.683594 480.480469 916.15625 480.574219 915.625 480.652344 C 915.09375 480.730469 914.5625 480.792969 914.027344 480.839844 C 913.492188 480.886719 912.953125 480.914062 912.417969 480.925781 C 911.878906 480.941406 911.34375 480.9375 910.808594 480.917969 C 910.269531 480.898438 909.734375 480.863281 909.199219 480.8125 C 908.664062 480.757812 908.132812 480.691406 907.601562 480.609375 C 907.070312 480.523438 906.542969 480.421875 906.019531 480.308594 C 905.496094 480.191406 904.976562 480.058594 904.457031 479.910156 C 903.941406 479.765625 903.429688 479.601562 902.921875 479.421875 C 902.417969 479.246094 901.917969 479.050781 901.421875 478.84375 C 900.925781 478.632812 900.4375 478.410156 899.957031 478.171875 C 899.476562 477.933594 899.003906 477.679688 898.535156 477.414062 C 898.070312 477.144531 897.613281 476.863281 897.164062 476.570312 C 896.714844 476.277344 896.273438 475.96875 895.84375 475.644531 C 895.414062 475.324219 894.992188 474.992188 894.582031 474.644531 C 894.171875 474.296875 893.773438 473.9375 893.386719 473.566406 C 892.996094 473.195312 892.621094 472.8125 892.253906 472.417969 C 891.890625 472.027344 891.535156 471.621094 891.195312 471.207031 C 890.855469 470.789062 890.527344 470.363281 890.210938 469.929688 C 889.898438 469.496094 889.59375 469.050781 889.308594 468.597656 C 889.019531 468.144531 888.746094 467.683594 888.484375 467.210938 C 886.230469 463.941406 884.324219 460.480469 882.753906 456.828125 C 881.1875 453.179688 879.992188 449.410156 879.171875 445.523438 C 878.351562 441.636719 877.917969 437.707031 877.871094 433.734375 C 877.828125 429.765625 878.171875 425.824219 878.90625 421.921875 C 881.394531 406.492188 885.25 391.1875 889.105469 372.152344 C 881.402344 376.964844 874.023438 382.230469 866.96875 387.953125 C 865.375 389.640625 864.136719 391.554688 863.257812 393.699219 C 862.378906 395.84375 861.914062 398.078125 861.867188 400.394531 C 860.25 459 859.007812 517.480469 857.761719 575.957031 C 857.761719 582.304688 857.761719 588.402344 857.761719 597.980469 C 868.625 597.671875 879.40625 596.550781 890.101562 594.621094 C 892.910156 593.847656 895.757812 593.257812 898.644531 592.855469 C 901.53125 592.453125 904.433594 592.238281 907.347656 592.21875 C 910.261719 592.195312 913.164062 592.367188 916.058594 592.722656 C 918.949219 593.082031 921.804688 593.628906 924.628906 594.363281 C 927.449219 595.097656 930.207031 596.011719 932.910156 597.109375 C 935.609375 598.207031 938.226562 599.472656 940.761719 600.914062 C 943.296875 602.351562 945.726562 603.953125 948.050781 605.710938 C 950.375 607.46875 952.574219 609.371094 954.652344 611.417969 C 1002.164062 652.105469 1051.164062 691.175781 1099.546875 730.867188 C 1103.652344 734.226562 1107.632812 737.710938 1111.363281 741.441406 C 1111.78125 741.746094 1112.183594 742.074219 1112.570312 742.417969 C 1112.953125 742.765625 1113.320312 743.128906 1113.671875 743.511719 C 1114.019531 743.898438 1114.347656 744.296875 1114.65625 744.714844 C 1114.960938 745.128906 1115.25 745.5625 1115.511719 746.007812 C 1115.777344 746.453125 1116.019531 746.910156 1116.234375 747.378906 C 1116.453125 747.851562 1116.644531 748.332031 1116.816406 748.820312 C 1116.984375 749.308594 1117.128906 749.808594 1117.246094 750.3125 C 1117.363281 750.816406 1117.457031 751.324219 1117.523438 751.839844 C 1117.589844 752.351562 1117.632812 752.867188 1117.644531 753.386719 C 1117.660156 753.90625 1117.648438 754.421875 1117.609375 754.9375 C 1117.570312 755.457031 1117.507812 755.96875 1117.417969 756.480469 C 1117.328125 756.988281 1117.210938 757.492188 1117.070312 757.992188 C 1116.929688 758.492188 1116.761719 758.980469 1116.570312 759.460938 C 1116.378906 759.945312 1116.164062 760.414062 1115.925781 760.875 C 1115.6875 761.332031 1115.425781 761.78125 1115.140625 762.214844 C 1114.855469 762.644531 1114.550781 763.0625 1114.222656 763.464844 C 1109.25 769.933594 1101.785156 769.8125 1092.457031 762.71875 C 1065.34375 741.316406 1038.105469 720.167969 1011.613281 698.019531 C 985.121094 675.871094 958.632812 651.855469 933.757812 628.714844 C 932.621094 627.589844 931.421875 626.542969 930.152344 625.570312 C 928.882812 624.597656 927.554688 623.714844 926.171875 622.914062 C 924.789062 622.113281 923.363281 621.402344 921.890625 620.789062 C 920.414062 620.171875 918.90625 619.648438 917.367188 619.226562 C 915.828125 618.804688 914.265625 618.480469 912.683594 618.257812 C 911.101562 618.035156 909.511719 617.914062 907.914062 617.898438 C 906.316406 617.878906 904.726562 617.960938 903.136719 618.148438 C 901.550781 618.335938 899.984375 618.621094 898.433594 619.007812 C 888.113281 621.046875 877.707031 622.457031 867.214844 623.238281 C 866.34375 623.171875 865.472656 623.179688 864.601562 623.265625 C 863.734375 623.355469 862.878906 623.515625 862.035156 623.753906 C 861.195312 623.992188 860.378906 624.300781 859.59375 624.683594 C 858.808594 625.066406 858.0625 625.515625 857.355469 626.03125 C 856.648438 626.546875 855.992188 627.117188 855.386719 627.75 C 854.78125 628.382812 854.234375 629.0625 853.75 629.789062 C 853.265625 630.515625 852.847656 631.28125 852.5 632.082031 C 852.148438 632.886719 851.871094 633.710938 851.667969 634.5625 C 850.984375 637.441406 849.738281 640.054688 847.9375 642.402344 C 824.058594 672.636719 824.804688 708.84375 823.0625 744.429688 C 822.441406 756.871094 821.695312 770.058594 820.328125 782.875 C 819.457031 791.335938 815.351562 797.558594 805.773438 797.058594 C 796.199219 796.5625 793.335938 789.59375 793.335938 781.257812 C 795.453125 746.171875 797.070312 711.082031 800.675781 676.246094 C 801.582031 670.800781 803.082031 665.523438 805.179688 660.421875 C 807.28125 655.316406 809.925781 650.511719 813.113281 646.007812 C 815.851562 641.695312 818.261719 637.203125 820.339844 632.535156 C 822.421875 627.871094 824.152344 623.074219 825.53125 618.15625 C 826.914062 613.234375 827.925781 608.238281 828.574219 603.171875 C 829.226562 598.101562 829.5 593.011719 829.40625 587.902344 C 830.027344 536.390625 832.890625 485.003906 834.257812 433.492188 C 834.257812 417.195312 833.386719 400.894531 832.140625 384.59375 C 831.066406 378.964844 829.367188 373.53125 827.042969 368.292969 C 813.363281 368.292969 810.75 377.378906 810.378906 385.839844 C 809.628906 408.609375 810.378906 431.378906 810.378906 454.148438 C 810.378906 459.375 812.988281 465.097656 811.621094 469.699219 C 810.253906 474.304688 805.652344 481.023438 801.671875 482.144531 C 800.316406 482.074219 798.988281 481.832031 797.691406 481.425781 C 796.398438 481.019531 795.171875 480.457031 794.019531 479.738281 C 792.867188 479.019531 791.820312 478.167969 790.882812 477.1875 C 789.949219 476.203125 789.148438 475.117188 788.488281 473.929688 C 785.480469 465.046875 783.742188 455.921875 783.261719 446.558594 C 782.121094 434.113281 782.121094 421.671875 783.261719 409.230469 C 783.5 398.886719 782.8125 388.601562 781.203125 378.378906 C 779.59375 368.15625 777.089844 358.160156 773.6875 348.386719 C 770.828125 340.484375 767.097656 333.019531 762.492188 325.992188 L 757.890625 326.984375 C 756.195312 332.304688 755.03125 337.738281 754.410156 343.285156 C 753.664062 370.785156 753.289062 398.28125 752.917969 425.777344 C 752.917969 440.335938 752.917969 455.019531 752.167969 469.574219 C 752.167969 481.273438 746.820312 486.996094 738.613281 486.25 C 728.042969 485.378906 725.429688 477.789062 726.175781 468.707031 C 727.171875 421.921875 728.164062 375.136719 729.535156 328.355469 C 729.683594 327.285156 729.734375 326.210938 729.6875 325.132812 C 729.640625 324.054688 729.492188 322.988281 729.246094 321.9375 C 729 320.886719 728.65625 319.867188 728.222656 318.878906 C 727.785156 317.890625 727.261719 316.953125 726.652344 316.0625 C 726.042969 315.171875 725.355469 314.34375 724.589844 313.582031 C 723.824219 312.820312 722.996094 312.132812 722.105469 311.523438 C 721.214844 310.914062 720.273438 310.394531 719.285156 309.960938 C 718.296875 309.527344 717.277344 309.1875 716.226562 308.945312 C 708.140625 307.949219 702.046875 312.925781 700.429688 324 C 698.089844 337.296875 696.804688 350.691406 696.574219 364.1875 C 696.574219 396.289062 698.191406 428.515625 698.6875 460.742188 C 699.195312 467.773438 698.28125 474.617188 695.953125 481.273438 C 695.285156 482.453125 694.488281 483.535156 693.558594 484.523438 C 692.632812 485.507812 691.597656 486.371094 690.460938 487.105469 C 689.324219 487.84375 688.117188 488.433594 686.835938 488.878906 C 685.554688 489.320312 684.242188 489.605469 682.894531 489.734375 C 678.664062 489.734375 673.8125 483.761719 671.078125 479.40625 C 669.671875 475.34375 669.339844 471.195312 670.082031 466.964844 L 670.082031 348.386719 C 670.082031 345.527344 671.328125 342.042969 670.082031 339.800781 C 669.195312 337.808594 668.03125 335.996094 666.589844 334.359375 C 665.148438 332.726562 663.492188 331.347656 661.625 330.222656 C 659.882812 329.476562 653.789062 333.707031 652.917969 336.691406 C 649.605469 346.027344 647.863281 355.652344 647.695312 365.558594 C 649.5625 400.644531 652.792969 435.609375 655.78125 470.570312 C 657.023438 486.25 659.261719 501.925781 660.257812 517.726562 C 661.875 541.742188 647.820312 551.324219 626.054688 542.613281 C 623.019531 541.40625 620.121094 539.9375 617.355469 538.199219 C 614.589844 536.460938 612.007812 534.488281 609.605469 532.277344 C 607.203125 530.0625 605.023438 527.652344 603.0625 525.039062 C 601.101562 522.425781 599.398438 519.660156 597.945312 516.734375 C 591.519531 504.929688 584.222656 493.6875 576.054688 483.015625 C 570.523438 477.773438 564.386719 473.378906 557.648438 469.824219 Z M 557.648438 469.824219 " fill-opacity="1" fill-rule="nonzero"/><path fill="#000000" d="M 768.960938 179.917969 C 774.058594 183.898438 778.289062 186.886719 782.144531 190.367188 C 787.238281 194.296875 791.839844 198.734375 795.949219 203.683594 C 797.179688 205.144531 798.296875 206.691406 799.296875 208.316406 C 800.300781 209.945312 801.175781 211.636719 801.929688 213.394531 C 802.683594 215.152344 803.300781 216.953125 803.789062 218.804688 C 804.273438 220.652344 804.621094 222.527344 804.832031 224.425781 C 805.039062 226.328125 805.109375 228.230469 805.035156 230.140625 C 804.964844 232.054688 804.75 233.949219 804.398438 235.828125 C 804.046875 237.707031 803.558594 239.546875 802.9375 241.355469 C 802.3125 243.160156 801.558594 244.914062 800.675781 246.609375 C 799.863281 248.113281 798.925781 249.542969 797.871094 250.886719 C 796.816406 252.234375 795.65625 253.484375 794.386719 254.632812 C 793.117188 255.785156 791.761719 256.820312 790.320312 257.738281 C 788.875 258.65625 787.367188 259.449219 785.789062 260.113281 C 784.210938 260.773438 782.585938 261.300781 780.921875 261.6875 C 779.253906 262.074219 777.566406 262.316406 775.859375 262.417969 C 774.148438 262.519531 772.445312 262.472656 770.746094 262.285156 C 769.042969 262.09375 767.371094 261.765625 765.726562 261.289062 C 745.359375 256.382812 725.292969 250.453125 705.53125 243.496094 C 699.515625 240.675781 693.257812 238.601562 686.75 237.277344 C 691.476562 241.753906 696.324219 245.984375 700.804688 250.589844 C 705.28125 255.195312 711.125 263.777344 704.660156 272.238281 C 699.808594 278.710938 691.101562 279.082031 682.894531 272.238281 C 669.34375 262.019531 656.449219 251.027344 644.214844 239.265625 C 642.996094 237.917969 641.914062 236.464844 640.96875 234.910156 C 640.023438 233.355469 639.230469 231.726562 638.589844 230.023438 C 637.953125 228.320312 637.480469 226.570312 637.167969 224.777344 C 636.859375 222.984375 636.71875 221.179688 636.75 219.359375 C 637.621094 210.027344 646.949219 206.917969 655.40625 206.917969 C 660.417969 205.925781 665.480469 205.367188 670.589844 205.246094 C 675.699219 205.125 680.78125 205.441406 685.835938 206.195312 C 690.890625 206.945312 695.84375 208.125 700.695312 209.730469 C 705.546875 211.335938 710.226562 213.34375 714.734375 215.75 C 727.722656 222.539062 741.320312 227.722656 755.527344 231.304688 C 762.953125 232.832031 770.457031 233.660156 778.039062 233.792969 C 773.6875 225.582031 772.320312 219.609375 768.585938 216.496094 C 756.347656 206.910156 743.355469 198.492188 729.605469 191.238281 C 715.855469 183.984375 701.570312 178.011719 686.75 173.324219 C 673.398438 171.054688 660.050781 171.054688 646.699219 173.324219 C 624.5625 173.324219 602.296875 175.4375 580.160156 174.816406 C 578.1875 174.675781 576.238281 174.367188 574.320312 173.894531 C 572.398438 173.417969 570.53125 172.785156 568.71875 171.988281 C 566.90625 171.195312 565.175781 170.25 563.527344 169.160156 C 561.875 168.066406 560.332031 166.839844 558.890625 165.484375 C 540.234375 146.945312 522.699219 127.285156 505.039062 107.75 C 483.894531 84.484375 463 60.84375 442.105469 37.328125 C 438.628906 33.332031 435.6875 28.976562 433.273438 24.261719 C 432.796875 23.59375 432.390625 22.886719 432.054688 22.136719 C 431.714844 21.386719 431.457031 20.613281 431.273438 19.808594 C 431.089844 19.007812 430.988281 18.199219 430.964844 17.378906 C 430.941406 16.554688 431 15.742188 431.136719 14.929688 C 431.277344 14.121094 431.492188 13.332031 431.789062 12.566406 C 432.082031 11.800781 432.449219 11.070312 432.890625 10.375 C 433.328125 9.679688 433.832031 9.035156 434.398438 8.441406 C 434.964844 7.847656 435.585938 7.316406 436.257812 6.84375 C 436.867188 6.289062 437.519531 5.796875 438.222656 5.371094 C 438.925781 4.945312 439.667969 4.59375 440.441406 4.316406 C 441.214844 4.035156 442.007812 3.835938 442.820312 3.714844 C 443.632812 3.59375 444.449219 3.550781 445.269531 3.59375 C 446.09375 3.632812 446.902344 3.753906 447.699219 3.953125 C 448.496094 4.15625 449.265625 4.433594 450.007812 4.785156 C 450.75 5.140625 451.449219 5.5625 452.109375 6.054688 C 452.769531 6.550781 453.371094 7.101562 453.921875 7.714844 C 456.445312 10.179688 458.808594 12.792969 461.007812 15.554688 C 497.699219 56.363281 534.515625 97.175781 570.957031 138.359375 C 571.699219 139.253906 572.496094 140.097656 573.347656 140.890625 C 574.199219 141.683594 575.09375 142.417969 576.039062 143.097656 C 576.984375 143.777344 577.964844 144.398438 578.988281 144.953125 C 580.007812 145.507812 581.058594 145.996094 582.144531 146.417969 C 583.226562 146.84375 584.332031 147.195312 585.460938 147.476562 C 586.585938 147.761719 587.730469 147.972656 588.882812 148.109375 C 590.039062 148.25 591.195312 148.316406 592.359375 148.308594 C 593.519531 148.300781 594.679688 148.21875 595.832031 148.066406 C 625.558594 146.445312 655.53125 145.203125 685.257812 146.445312 C 691.609375 147.121094 697.824219 148.441406 703.902344 150.410156 C 709.976562 152.382812 715.785156 154.960938 721.324219 158.144531 C 722.667969 158.957031 724.0625 159.660156 725.511719 160.261719 C 726.960938 160.859375 728.449219 161.34375 729.972656 161.714844 C 731.5 162.085938 733.042969 162.339844 734.605469 162.476562 C 736.167969 162.609375 737.730469 162.625 739.296875 162.519531 C 740.863281 162.414062 742.410156 162.191406 743.941406 161.847656 C 745.472656 161.503906 746.96875 161.046875 748.429688 160.476562 C 749.890625 159.90625 751.300781 159.226562 752.65625 158.4375 C 754.011719 157.648438 755.300781 156.765625 756.523438 155.777344 C 782.890625 138.855469 810.875 125.667969 844.207031 133.382812 C 848.3125 134.378906 854.652344 130.023438 858.632812 126.539062 C 896.566406 92.417969 931.351562 55.339844 962.984375 15.304688 C 966.59375 9.90625 971.113281 5.429688 976.542969 1.867188 C 977.8125 1.433594 979.113281 1.144531 980.445312 0.996094 C 981.78125 0.851562 983.113281 0.855469 984.449219 1.007812 C 985.78125 1.15625 987.082031 1.453125 988.351562 1.890625 C 989.617188 2.328125 990.824219 2.902344 991.964844 3.609375 C 994.699219 5.722656 994.949219 13.3125 993.582031 17.667969 C 991.40625 22.398438 988.421875 26.546875 984.625 30.109375 C 950.308594 73.355469 912.996094 113.832031 872.6875 151.546875 C 871.695312 152.503906 870.652344 153.398438 869.550781 154.230469 C 868.453125 155.066406 867.308594 155.828125 866.117188 156.523438 C 864.929688 157.21875 863.699219 157.839844 862.4375 158.386719 C 861.171875 158.9375 859.878906 159.40625 858.558594 159.800781 C 857.238281 160.195312 855.898438 160.507812 854.539062 160.742188 C 853.179688 160.976562 851.8125 161.128906 850.4375 161.199219 C 849.0625 161.265625 847.683594 161.253906 846.308594 161.160156 C 844.933594 161.066406 843.570312 160.890625 842.214844 160.632812 C 811.621094 155.902344 796.945312 159.511719 768.960938 179.917969 Z M 768.960938 179.917969 " fill-opacity="1" fill-rule="nonzero"/></svg>