<svg xmlns="http://www.w3.org/2000/svg" xmlns:xlink="http://www.w3.org/1999/xlink" width="1920" zoomAndPan="magnify" viewBox="0 0 1440 809.999993" height="1080" preserveAspectRatio="xMidYMid meet" version="1.0"><path fill="#100f0d" d="M 819.152344 317.824219 C 818.261719 318.347656 817.460938 318.988281 816.773438 319.726562 C 793.917969 338.015625 766.40625 356.835938 733.246094 375.90625 C 715.824219 365.878906 699.96875 355.933594 685.515625 346.085938 C 685.019531 345.679688 684.5 345.320312 683.929688 345.015625 C 649.039062 321.09375 622.492188 297.851562 602.382812 275.878906 C 601.671875 274.695312 600.746094 273.660156 599.617188 272.8125 C 550.167969 217.40625 541.503906 170.304688 542.609375 141.304688 C 544.132812 101.503906 565.800781 66.085938 597.816406 51.066406 C 611.941406 44.445312 625.582031 41.808594 638.355469 41.808594 C 687.21875 41.808594 723.34375 80.449219 725.226562 82.5 C 727.28125 84.761719 730.191406 86.042969 733.226562 86.042969 C 733.238281 86.042969 733.246094 86.042969 733.246094 86.042969 C 736.28125 86.042969 739.183594 84.773438 741.246094 82.539062 C 743.632812 79.925781 800.558594 19.113281 868.683594 51.066406 C 900.691406 66.085938 922.367188 101.503906 923.890625 141.304688 C 925.015625 171.007812 915.90625 219.703125 863.195312 276.867188 C 862.144531 277.652344 861.242188 278.625 860.53125 279.734375 C 848.890625 292.074219 835.207031 304.816406 819.152344 317.824219 Z M 777.710938 491.074219 C 805.488281 491.074219 828.082031 513.667969 828.082031 541.445312 C 828.082031 569.21875 805.488281 591.816406 777.710938 591.816406 C 771.804688 591.816406 766.136719 590.789062 760.855469 588.90625 C 757.613281 587.308594 754.308594 585.699219 750.867188 584.023438 C 736.742188 575.09375 727.34375 559.34375 727.34375 541.445312 C 727.34375 513.667969 749.9375 491.074219 777.710938 491.074219 Z M 346.265625 483.0625 C 346.265625 448.863281 374.082031 421.035156 408.289062 421.035156 C 442.496094 421.035156 470.324219 448.863281 470.324219 483.0625 C 470.324219 517.273438 442.496094 545.09375 408.289062 545.09375 C 374.082031 545.09375 346.265625 517.273438 346.265625 483.0625 Z M 1031.480469 431.964844 C 1063.121094 431.964844 1088.859375 457.703125 1088.859375 489.34375 C 1088.859375 520.992188 1063.121094 546.730469 1031.480469 546.730469 C 999.832031 546.730469 974.09375 520.992188 974.09375 489.34375 C 974.09375 457.703125 999.832031 431.964844 1031.480469 431.964844 Z M 1065.128906 560.902344 C 1091.957031 548.238281 1110.570312 520.929688 1110.570312 489.34375 C 1110.570312 445.730469 1075.09375 410.25 1031.480469 410.25 C 987.949219 410.25 952.535156 445.59375 952.394531 489.089844 C 914.492188 428.828125 890.296875 337.015625 881.324219 288.996094 C 937.257812 227.101562 946.835938 173.40625 945.574219 140.476562 C 943.746094 92.644531 917.1875 49.84375 877.898438 31.417969 C 810.902344 -0.00390625 753.777344 41.742188 733.273438 60.085938 C 712.8125 41.707031 655.851562 -0.113281 588.601562 31.417969 C 549.3125 49.84375 522.746094 92.644531 520.925781 140.476562 C 519.691406 172.53125 528.738281 224.273438 580.824219 284.09375 C 551.917969 372.574219 525.648438 445.449219 491.511719 492.253906 C 491.847656 489.234375 492.027344 486.171875 492.027344 483.0625 C 492.027344 436.890625 454.460938 399.332031 408.289062 399.332031 C 362.121094 399.332031 324.554688 436.890625 324.554688 483.0625 C 324.554688 516.910156 344.75 546.109375 373.707031 559.300781 C 370.894531 560.425781 368.128906 561.589844 365.507812 562.804688 C 334.273438 577.203125 314.085938 609.121094 314.085938 644.113281 L 314.085938 798.984375 C 314.085938 804.984375 318.941406 809.839844 324.941406 809.839844 C 330.933594 809.839844 335.789062 804.984375 335.789062 798.984375 L 335.789062 644.113281 C 335.789062 617.5625 351.019531 593.382812 374.589844 582.515625 C 387.316406 576.644531 402.695312 571.789062 420.289062 568.085938 C 507.710938 549.667969 548.664062 451.1875 597.726562 302.21875 C 605.230469 309.761719 613.429688 317.410156 622.390625 325.132812 C 589.683594 457.242188 551.753906 551.542969 518.171875 584.101562 C 516.0625 586.148438 514.871094 588.957031 514.871094 591.894531 L 514.871094 798.984375 C 514.871094 804.984375 519.738281 809.839844 525.726562 809.839844 C 531.71875 809.839844 536.582031 804.984375 536.582031 798.984375 L 536.582031 596.347656 C 582.691406 547.488281 620.535156 420.890625 640.949219 340.375 C 648.753906 346.492188 657.039062 352.652344 665.851562 358.84375 C 648.996094 412.070312 620.003906 527.570312 652.003906 613.921875 L 652.003906 798.984375 C 652.003906 804.984375 656.859375 809.839844 662.851562 809.839844 C 668.851562 809.839844 673.707031 804.984375 673.707031 798.984375 L 673.707031 611.949219 C 673.707031 610.625 673.472656 609.3125 672.996094 608.078125 C 643.066406 529.929688 670.074219 419.664062 684.652344 371.566406 C 695.328125 378.546875 706.667969 385.554688 718.742188 392.582031 C 702.695312 451.359375 678.722656 571.625 740.082031 602.886719 C 743.902344 605.238281 747.957031 607.230469 752.199219 608.84375 C 815.648438 640.113281 828.082031 651.925781 828.082031 676.96875 L 828.082031 798.984375 C 828.082031 804.984375 832.9375 809.839844 838.925781 809.839844 C 844.925781 809.839844 849.78125 804.984375 849.78125 798.984375 L 849.78125 676.96875 C 849.78125 647.257812 835.601562 630.113281 800.648438 609.761719 C 829.171875 600.148438 849.78125 573.164062 849.78125 541.445312 C 849.78125 501.703125 817.460938 469.371094 777.710938 469.371094 C 755.550781 469.371094 735.695312 479.433594 722.460938 495.226562 C 724.238281 464.621094 730.957031 429.972656 740.027344 397.023438 C 769.882812 380.058594 795.503906 363.167969 817.496094 346.5625 C 827.234375 392.789062 856.855469 518.640625 903.816406 589.128906 L 903.816406 798.984375 C 903.816406 804.984375 908.671875 809.839844 914.664062 809.839844 C 920.664062 809.839844 925.519531 804.984375 925.519531 798.984375 L 925.519531 585.804688 C 925.519531 583.605469 924.851562 581.464844 923.609375 579.652344 C 874.070312 507.613281 843 363.347656 836.574219 331.480469 C 846.1875 323.527344 854.980469 315.652344 863.027344 307.878906 C 876.476562 370.664062 923.871094 554.96875 1019.039062 568.328125 C 1022.515625 568.851562 1104.164062 582.085938 1104.164062 653.789062 L 1104.164062 798.984375 C 1104.164062 804.984375 1109.019531 809.839844 1115.011719 809.839844 C 1121.011719 809.839844 1125.867188 804.984375 1125.867188 798.984375 L 1125.867188 653.789062 C 1125.867188 605.5625 1095.820312 576.507812 1065.128906 560.902344 " fill-opacity="1" fill-rule="nonzero"/><path fill="#100f0d" d="M 385.964844 645.589844 C 379.964844 645.589844 375.109375 650.449219 375.109375 656.4375 L 375.109375 798.984375 C 375.109375 804.984375 379.964844 809.839844 385.964844 809.839844 C 391.957031 809.839844 396.8125 804.984375 396.8125 798.984375 L 396.8125 656.4375 C 396.8125 650.449219 391.957031 645.589844 385.964844 645.589844 " fill-opacity="1" fill-rule="nonzero"/></svg>