<svg xmlns="http://www.w3.org/2000/svg" xmlns:xlink="http://www.w3.org/1999/xlink" width="1920" zoomAndPan="magnify" viewBox="0 0 1440 809.999993" height="1080" preserveAspectRatio="xMidYMid meet" version="1.0"><path fill="#000000" d="M 850.046875 344.589844 L 850.046875 363.410156 C 882.492188 371.3125 913.378906 381.8125 934.90625 406.558594 C 948.601562 399.46875 962.675781 393.230469 977.125 387.84375 C 979.5625 387.113281 982.015625 386.449219 984.484375 385.851562 C 986.957031 385.257812 989.441406 384.730469 991.941406 384.273438 C 994.441406 383.816406 996.953125 383.429688 999.476562 383.113281 C 1002 382.792969 1004.527344 382.546875 1007.0625 382.371094 C 1009.597656 382.195312 1012.136719 382.085938 1014.679688 382.050781 C 1017.222656 382.015625 1019.761719 382.050781 1022.300781 382.15625 C 1024.839844 382.261719 1027.375 382.441406 1029.90625 382.6875 C 1032.4375 382.933594 1034.957031 383.25 1037.46875 383.636719 C 1039.984375 384.023438 1042.480469 384.480469 1044.96875 385.007812 C 1047.457031 385.535156 1049.925781 386.128906 1052.378906 386.792969 C 1054.832031 387.457031 1057.265625 388.1875 1059.679688 388.984375 C 1062.09375 389.785156 1064.484375 390.648438 1066.847656 391.582031 C 1069.210938 392.511719 1071.550781 393.511719 1073.859375 394.574219 C 1076.167969 395.632812 1078.445312 396.757812 1080.695312 397.949219 C 1082.941406 399.136719 1085.152344 400.386719 1087.332031 401.699219 C 1089.507812 403.011719 1091.648438 404.382812 1093.746094 405.8125 C 1095.847656 407.242188 1097.910156 408.730469 1099.925781 410.277344 C 1101.945312 411.820312 1103.917969 413.421875 1105.847656 415.078125 C 1107.777344 416.730469 1109.660156 418.4375 1111.492188 420.199219 C 1113.328125 421.957031 1115.109375 423.769531 1116.84375 425.625 C 1118.578125 427.484375 1120.257812 429.390625 1121.886719 431.34375 C 1123.511719 433.296875 1125.085938 435.292969 1126.601562 437.332031 C 1128.117188 439.371094 1129.574219 441.453125 1130.976562 443.574219 C 1132.378906 445.695312 1133.71875 447.851562 1135 450.050781 C 1136.277344 452.246094 1137.496094 454.472656 1138.652344 456.738281 C 1139.808594 459 1140.902344 461.292969 1141.929688 463.617188 C 1142.960938 465.941406 1143.921875 468.292969 1144.820312 470.671875 C 1145.71875 473.050781 1146.550781 475.449219 1147.316406 477.875 C 1148.078125 480.296875 1148.777344 482.742188 1149.40625 485.203125 C 1150.03125 487.667969 1150.59375 490.144531 1151.082031 492.640625 C 1151.574219 495.132812 1151.992188 497.640625 1152.34375 500.15625 C 1152.695312 502.671875 1152.976562 505.199219 1153.1875 507.730469 C 1153.523438 515.105469 1153.308594 522.464844 1152.542969 529.808594 C 1151.777344 537.148438 1150.46875 544.394531 1148.621094 551.539062 C 1146.769531 558.6875 1144.394531 565.65625 1141.5 572.445312 C 1138.605469 579.238281 1135.222656 585.773438 1131.347656 592.058594 C 1112.101562 625.121094 1089.082031 655.308594 1062.296875 682.625 C 1041.015625 705.820312 1017.925781 727.054688 993.03125 746.324219 C 968.136719 765.597656 941.792969 782.625 914.003906 797.417969 C 888.109375 810.414062 879.269531 808.441406 860.03125 787.019531 C 836.320312 760.195312 812.503906 733.574219 787.234375 705.5 C 781.929688 707.371094 776.105469 709.347656 770.386719 711.53125 C 764.273438 713.773438 758.101562 715.847656 751.875 717.746094 C 745.644531 719.644531 739.367188 721.371094 733.042969 722.921875 C 726.71875 724.472656 720.355469 725.847656 713.953125 727.042969 C 707.550781 728.238281 701.121094 729.257812 694.664062 730.097656 C 688.203125 730.9375 681.726562 731.59375 675.234375 732.074219 C 668.738281 732.550781 662.234375 732.851562 655.722656 732.96875 C 649.210938 733.085938 642.703125 733.019531 636.195312 732.777344 C 629.6875 732.53125 623.191406 732.105469 616.707031 731.5 C 610.222656 730.890625 603.761719 730.105469 597.320312 729.140625 C 590.878906 728.175781 584.472656 727.03125 578.09375 725.707031 C 571.71875 724.386719 565.382812 722.886719 559.089844 721.210938 C 552.796875 719.539062 546.554688 717.691406 540.363281 715.667969 C 534.171875 713.644531 528.042969 711.453125 521.976562 709.089844 C 515.90625 706.726562 509.910156 704.199219 503.980469 701.5 C 498.054688 698.804688 492.203125 695.945312 486.4375 692.925781 C 480.667969 689.902344 474.988281 686.722656 469.394531 683.386719 C 463.804688 680.046875 458.308594 676.558594 452.910156 672.914062 C 447.511719 669.269531 442.222656 665.480469 437.035156 661.542969 C 431.847656 657.605469 426.773438 653.523438 421.816406 649.304688 C 416.855469 645.085938 412.015625 640.730469 407.300781 636.242188 C 402.582031 631.753906 397.992188 627.136719 393.53125 622.390625 C 389.070312 617.648438 384.746094 612.78125 380.554688 607.796875 C 376.367188 602.8125 372.320312 597.714844 368.414062 592.503906 C 364.507812 587.292969 360.746094 581.980469 357.136719 576.558594 C 353.527344 571.140625 350.070312 565.625 346.765625 560.015625 C 343.460938 554.402344 340.316406 548.703125 337.332031 542.917969 C 334.34375 537.132812 331.519531 531.265625 328.859375 525.324219 C 326.199219 519.378906 323.707031 513.367188 321.382812 507.285156 C 319.054688 501.203125 316.902344 495.058594 314.917969 488.859375 C 312.933594 482.65625 311.121094 476.402344 309.488281 470.101562 C 307.851562 463.796875 306.390625 457.453125 305.109375 451.070312 C 303.824219 444.6875 302.71875 438.273438 301.792969 431.828125 C 300.824219 425.90625 300.003906 419.964844 299.328125 414 C 298.65625 408.039062 298.132812 402.066406 297.757812 396.078125 C 297.382812 390.089844 297.15625 384.09375 297.078125 378.09375 C 297.003906 372.09375 297.074219 366.097656 297.296875 360.101562 C 297.519531 354.105469 297.890625 348.121094 298.414062 342.144531 C 298.933594 336.164062 299.605469 330.203125 300.421875 324.261719 C 301.242188 318.316406 302.207031 312.398438 303.320312 306.5 C 304.433594 300.605469 305.695312 294.742188 307.101562 288.910156 C 308.507812 283.074219 310.058594 277.28125 311.75 271.527344 C 313.445312 265.769531 315.285156 260.058594 317.265625 254.394531 C 319.242188 248.730469 321.363281 243.121094 323.621094 237.5625 C 325.882812 232.003906 328.277344 226.503906 330.8125 221.066406 C 333.347656 215.628906 336.011719 210.253906 338.816406 204.949219 C 341.617188 199.644531 344.546875 194.410156 347.609375 189.25 C 350.671875 184.089844 353.863281 179.011719 357.179688 174.011719 C 360.496094 169.007812 363.933594 164.09375 367.492188 159.265625 C 371.054688 154.4375 374.734375 149.699219 378.53125 145.050781 C 382.328125 140.40625 386.238281 135.859375 390.261719 131.40625 C 394.285156 126.957031 398.417969 122.609375 402.660156 118.363281 C 406.898438 114.117188 411.246094 109.980469 415.691406 105.953125 C 420.136719 101.925781 424.683594 98.007812 429.324219 94.207031 C 433.96875 90.40625 438.703125 86.722656 443.527344 83.15625 C 448.355469 79.589844 453.265625 76.148438 458.261719 72.824219 C 463.261719 69.503906 468.339844 66.308594 473.496094 63.242188 C 478.652344 60.175781 483.882812 57.238281 489.1875 54.429688 C 494.488281 51.621094 499.859375 48.949219 505.296875 46.410156 C 510.734375 43.871094 516.230469 41.46875 521.785156 39.203125 C 527.34375 36.9375 532.953125 34.8125 538.613281 32.824219 C 544.277344 30.839844 549.984375 28.996094 555.742188 27.296875 C 561.496094 25.59375 567.289062 24.039062 573.121094 22.625 C 578.953125 21.210938 584.816406 19.945312 590.710938 18.828125 C 596.605469 17.707031 602.527344 16.734375 608.46875 15.910156 C 719.117188 0.105469 816.457031 34 897.363281 110.113281 C 904.152344 116.554688 910.671875 123.253906 916.925781 130.214844 C 923.175781 137.175781 929.136719 144.378906 934.808594 151.820312 C 940.484375 159.257812 945.847656 166.914062 950.90625 174.785156 C 955.964844 182.65625 960.699219 190.71875 965.109375 198.96875 C 969.519531 207.222656 973.59375 215.636719 977.328125 224.214844 C 981.0625 232.792969 984.449219 241.507812 987.484375 250.359375 C 990.519531 259.207031 993.195312 268.164062 995.511719 277.230469 C 997.828125 286.296875 999.777344 295.4375 1001.355469 304.660156 C 1002.449219 310.328125 1003.074219 316.046875 1003.230469 321.816406 C 1003.230469 337.207031 998.550781 342.613281 983.261719 344.066406 C 969.535156 344.898438 955.601562 344.066406 941.664062 344.066406 Z M 889.148438 776.3125 C 890.75 776.050781 892.308594 775.632812 893.828125 775.0625 C 896.53125 773.917969 899.132812 772.773438 901.730469 771.421875 C 912.019531 765.910156 922.113281 760.066406 932.019531 753.894531 C 941.925781 747.71875 951.617188 741.230469 961.101562 734.425781 C 970.582031 727.617188 979.832031 720.511719 988.847656 713.101562 C 997.863281 705.691406 1006.628906 697.992188 1015.144531 690.011719 C 1023.660156 682.027344 1031.902344 673.777344 1039.878906 665.253906 C 1047.855469 656.734375 1055.542969 647.960938 1062.945312 638.9375 C 1070.347656 629.914062 1077.445312 620.660156 1084.246094 611.171875 C 1091.042969 601.6875 1097.523438 591.988281 1103.6875 582.078125 C 1112.136719 568.171875 1118.238281 553.300781 1121.988281 537.46875 C 1122.632812 534.769531 1123.167969 532.046875 1123.589844 529.300781 C 1124.011719 526.558594 1124.320312 523.800781 1124.515625 521.03125 C 1124.710938 518.261719 1124.792969 515.488281 1124.761719 512.710938 C 1124.730469 509.933594 1124.585938 507.164062 1124.328125 504.398438 C 1124.070312 501.632812 1123.699219 498.886719 1123.21875 496.152344 C 1122.734375 493.417969 1122.140625 490.707031 1121.4375 488.019531 C 1120.730469 485.335938 1119.917969 482.683594 1118.996094 480.0625 C 1118.074219 477.445312 1117.046875 474.867188 1115.914062 472.332031 C 1114.785156 469.796875 1113.550781 467.3125 1112.214844 464.878906 C 1110.878906 462.441406 1109.445312 460.066406 1107.914062 457.75 C 1106.382812 455.433594 1104.761719 453.183594 1103.046875 451 C 1101.332031 448.8125 1099.53125 446.703125 1097.644531 444.667969 C 1095.757812 442.628906 1093.789062 440.671875 1091.742188 438.796875 C 1089.695312 436.921875 1087.574219 435.132812 1085.378906 433.429688 C 1083.183594 431.726562 1080.925781 430.117188 1078.601562 428.601562 C 1076.273438 427.082031 1073.890625 425.664062 1071.449219 424.339844 C 1069.136719 422.816406 1066.761719 421.390625 1064.332031 420.066406 C 1061.898438 418.742188 1059.414062 417.519531 1056.878906 416.398438 C 1054.347656 415.28125 1051.769531 414.269531 1049.152344 413.367188 C 1046.53125 412.460938 1043.882812 411.667969 1041.195312 410.988281 C 1038.511719 410.304688 1035.804688 409.734375 1033.070312 409.277344 C 1030.339844 408.820312 1027.59375 408.480469 1024.832031 408.25 C 1022.070312 408.023438 1019.304688 407.910156 1016.535156 407.914062 C 1013.765625 407.917969 1011 408.035156 1008.238281 408.269531 C 1005.480469 408.503906 1002.734375 408.851562 1000.003906 409.3125 C 997.269531 409.777344 994.5625 410.351562 991.878906 411.039062 C 989.195312 411.730469 986.546875 412.527344 983.929688 413.4375 C 981.3125 414.347656 978.738281 415.363281 976.207031 416.488281 C 973.675781 417.613281 971.195312 418.839844 968.765625 420.171875 C 966.335938 421.503906 963.96875 422.933594 961.65625 424.460938 C 959.347656 425.988281 957.105469 427.613281 954.929688 429.328125 C 952.757812 431.042969 950.65625 432.847656 948.632812 434.738281 C 937.503906 444.511719 931.785156 445.136719 923.152344 432.96875 C 921.042969 430.203125 918.804688 427.546875 916.441406 424.996094 C 914.074219 422.441406 911.59375 420.011719 908.996094 417.695312 C 906.398438 415.382812 903.695312 413.199219 900.886719 411.144531 C 898.082031 409.089844 895.179688 407.171875 892.191406 405.394531 C 889.199219 403.617188 886.128906 401.988281 882.984375 400.503906 C 879.835938 399.019531 876.625 397.691406 873.351562 396.515625 C 870.078125 395.335938 866.753906 394.320312 863.382812 393.464844 C 860.011719 392.605469 856.605469 391.910156 853.167969 391.378906 C 827.585938 386.074219 802.3125 386.804688 781.515625 405.832031 C 777.851562 408.988281 774.359375 412.324219 771.035156 415.835938 C 767.710938 419.351562 764.570312 423.019531 761.621094 426.851562 C 758.667969 430.679688 755.914062 434.652344 753.367188 438.761719 C 750.816406 442.867188 748.480469 447.097656 746.355469 451.441406 C 744.234375 455.789062 742.339844 460.230469 740.667969 464.765625 C 738.996094 469.304688 737.558594 473.914062 736.351562 478.597656 C 735.148438 483.28125 734.183594 488.015625 733.457031 492.796875 C 732.734375 497.578125 732.253906 502.382812 732.015625 507.210938 C 729.933594 547.453125 745.324219 582.804688 764.355469 616.703125 C 797.425781 676.492188 842.351562 726.710938 889.148438 776.3125 Z M 490.957031 348.433594 L 329.039062 348.433594 C 316.457031 411.550781 345.367188 517.296875 379.996094 552.652344 C 388.8125 545.800781 398 539.492188 407.554688 533.722656 C 417.113281 527.953125 426.972656 522.761719 437.136719 518.144531 C 447.304688 513.53125 457.703125 509.527344 468.339844 506.136719 C 478.976562 502.742188 489.773438 499.980469 500.734375 497.855469 Z M 662.128906 704.355469 C 680.71875 703.765625 699.082031 701.414062 717.222656 697.304688 C 735.359375 693.195312 752.945312 687.402344 769.972656 679.921875 C 763.835938 670.355469 758.949219 662.660156 753.957031 655.070312 C 744.820312 641.730469 736.703125 627.792969 729.613281 613.265625 C 722.519531 598.734375 716.527344 583.761719 711.632812 568.351562 C 710.125 564.066406 708.800781 559.726562 707.660156 555.328125 C 706.519531 550.929688 705.566406 546.492188 704.800781 542.015625 C 704.039062 537.539062 703.464844 533.035156 703.078125 528.507812 C 702.695312 523.984375 702.503906 519.449219 702.503906 514.90625 C 702.503906 510.363281 702.695312 505.828125 703.078125 501.304688 C 703.464844 496.777344 704.039062 492.273438 704.800781 487.796875 C 705.566406 483.320312 706.519531 478.882812 707.660156 474.484375 C 708.800781 470.085938 710.125 465.746094 711.632812 461.460938 C 730.664062 411.964844 759.261719 371.832031 816.351562 361.953125 C 817.289062 361.953125 818.121094 360.601562 819.160156 359.769531 C 822.074219 349.371094 817.808594 345.417969 807.097656 345.523438 C 761.964844 346.25 716.414062 346.25 670.96875 346.25 C 667.957031 346.707031 665.007812 347.433594 662.128906 348.433594 Z M 421.488281 139.539062 C 415.574219 145.621094 409.894531 151.914062 404.453125 158.421875 C 399.011719 164.929688 393.820312 171.632812 388.882812 178.53125 C 383.945312 185.425781 379.277344 192.5 374.871094 199.75 C 370.46875 207 366.339844 214.40625 362.496094 221.964844 C 358.648438 229.527344 355.089844 237.222656 351.824219 245.050781 C 348.554688 252.878906 345.589844 260.816406 342.917969 268.871094 C 340.25 276.921875 337.886719 285.0625 335.832031 293.292969 C 333.773438 301.519531 332.03125 309.816406 330.597656 318.175781 L 491.894531 318.175781 C 496.363281 281.679688 500.835938 246.847656 504.371094 212.015625 C 504.304688 210.890625 504.109375 209.792969 503.792969 208.714844 C 503.476562 207.632812 503.042969 206.605469 502.492188 205.625 C 501.945312 204.644531 501.292969 203.734375 500.539062 202.902344 C 499.785156 202.066406 498.949219 201.328125 498.027344 200.679688 C 483.371094 193.128906 469.601562 184.210938 456.71875 173.917969 C 443.835938 163.628906 432.089844 152.167969 421.488281 139.539062 Z M 520.804688 346.773438 C 520.015625 395.21875 523.480469 443.363281 531.203125 491.199219 L 633.21875 491.199219 L 633.21875 346.773438 Z M 903.601562 157.945312 L 829.871094 201.511719 C 836.527344 240.089844 843.078125 277.832031 849.527344 315.265625 L 974.320312 315.265625 C 972.066406 300.875 968.863281 286.695312 964.710938 272.734375 C 960.5625 258.769531 955.5 245.144531 949.527344 231.855469 C 943.554688 218.570312 936.726562 205.738281 929.039062 193.367188 C 921.347656 180.992188 912.871094 169.183594 903.601562 157.945312 Z M 667.226562 43.566406 L 667.226562 205.878906 C 688.679688 206.15625 709.960938 204.386719 731.074219 200.574219 C 752.1875 196.761719 772.746094 190.972656 792.746094 183.210938 C 790.945312 176.644531 788.886719 170.160156 786.5625 163.757812 C 784.238281 157.355469 781.65625 151.058594 778.824219 144.867188 C 775.988281 138.675781 772.910156 132.605469 769.585938 126.664062 C 766.261719 120.71875 762.703125 114.921875 758.90625 109.265625 C 755.113281 103.609375 751.097656 98.117188 746.855469 92.785156 C 742.617188 87.457031 738.171875 82.304688 733.515625 77.335938 C 728.859375 72.363281 724.011719 67.589844 718.96875 63.011719 C 713.925781 58.433594 708.707031 54.066406 703.3125 49.910156 C 702.066406 48.886719 700.761719 47.949219 699.398438 47.089844 C 698.03125 46.230469 696.621094 45.460938 695.160156 44.777344 C 693.699219 44.097656 692.203125 43.507812 690.667969 43.015625 C 689.132812 42.519531 687.574219 42.125 685.992188 41.824219 C 684.40625 41.527344 682.808594 41.328125 681.203125 41.230469 C 679.59375 41.132812 677.984375 41.132812 676.375 41.238281 C 674.765625 41.339844 673.171875 41.542969 671.589844 41.847656 C 670.003906 42.148438 668.445312 42.550781 666.914062 43.046875 Z M 803.355469 214.300781 L 665.457031 239.257812 L 665.457031 315.058594 C 686.257812 319.007812 805.015625 317.761719 819.679688 312.667969 Z M 631.765625 521.042969 C 596.09375 513.347656 560.007812 513.449219 537.027344 521.042969 C 537.070312 525.964844 537.519531 530.851562 538.378906 535.703125 C 546.179688 564.609375 553.457031 593.617188 562.714844 622.003906 C 566.746094 634.367188 571.808594 646.292969 577.902344 657.78125 C 583.996094 669.269531 591.03125 680.152344 599.007812 690.421875 C 599.851562 691.738281 600.796875 692.976562 601.84375 694.136719 C 602.890625 695.292969 604.027344 696.359375 605.25 697.332031 C 606.472656 698.300781 607.769531 699.167969 609.136719 699.925781 C 610.503906 700.683594 611.921875 701.324219 613.394531 701.847656 C 614.867188 702.371094 616.371094 702.769531 617.910156 703.042969 C 619.449219 703.320312 621 703.464844 622.5625 703.484375 C 624.125 703.503906 625.675781 703.394531 627.222656 703.15625 C 628.765625 702.917969 630.28125 702.558594 631.765625 702.070312 Z M 565.519531 693.4375 C 533.804688 639.160156 518.828125 583.324219 506.765625 524.472656 C 496.402344 526.394531 486.214844 529.011719 476.210938 532.324219 C 466.203125 535.636719 456.46875 539.613281 447.003906 544.253906 C 437.539062 548.890625 428.433594 554.152344 419.6875 560.03125 C 410.9375 565.914062 402.632812 572.359375 394.761719 579.375 C 400.132812 586.226562 405.765625 592.855469 411.664062 599.257812 C 417.558594 605.664062 423.699219 611.828125 430.082031 617.746094 C 436.46875 623.664062 443.078125 629.320312 449.910156 634.714844 C 456.746094 640.105469 463.78125 645.222656 471.019531 650.058594 C 478.257812 654.894531 485.679688 659.4375 493.277344 663.683594 C 500.878906 667.929688 508.632812 671.871094 516.546875 675.503906 C 524.460938 679.132812 532.503906 682.449219 540.679688 685.441406 C 548.851562 688.4375 557.132812 691.101562 565.519531 693.4375 Z M 636.339844 203.800781 L 636.339844 44.710938 C 634.914062 44.199219 633.460938 43.792969 631.980469 43.484375 C 630.5 43.179688 629.003906 42.976562 627.492188 42.878906 C 625.980469 42.785156 624.472656 42.792969 622.964844 42.90625 C 621.453125 43.023438 619.960938 43.242188 618.484375 43.566406 C 617.003906 43.894531 615.554688 44.320312 614.136719 44.847656 C 612.71875 45.375 611.34375 46 610.015625 46.722656 C 608.683594 47.441406 607.410156 48.253906 606.195312 49.152344 C 604.976562 50.050781 603.828125 51.03125 602.75 52.09375 C 592.714844 61.449219 583.910156 71.847656 576.335938 83.289062 C 568.824219 95.953125 562.359375 109.128906 556.933594 122.820312 C 551.507812 136.507812 547.195312 150.539062 543.992188 164.910156 C 542.332031 171.460938 541.1875 178.117188 539.9375 184.355469 C 547.417969 187.925781 555.089844 191.023438 562.953125 193.648438 C 570.816406 196.273438 578.808594 198.40625 586.9375 200.042969 C 595.0625 201.683594 603.257812 202.816406 611.523438 203.445312 C 619.789062 204.074219 628.058594 204.191406 636.339844 203.800781 Z M 523.714844 318.175781 C 561.777344 317.34375 598.589844 319.113281 635.613281 316.203125 L 635.613281 237.175781 L 532.449219 217.734375 C 526.371094 250.972656 523.460938 284.488281 523.714844 318.28125 Z M 443.640625 120.617188 C 448.128906 126.296875 452.929688 131.699219 458.042969 136.824219 C 463.15625 141.949219 468.550781 146.761719 474.222656 151.261719 C 479.894531 155.761719 485.808594 159.917969 491.964844 163.730469 C 498.117188 167.542969 504.472656 170.984375 511.027344 174.0625 C 518.101562 152.226562 523.507812 132.46875 531.097656 113.027344 C 538.691406 93.582031 548.671875 75.386719 558.035156 55.628906 C 515.5 68.417969 466.832031 95.867188 443.640625 120.824219 Z M 881.972656 137.253906 C 857.222656 104.1875 786.402344 61.347656 750.941406 57.5 C 784.53125 89.734375 802.9375 130.285156 819.886719 173.957031 Z M 881.972656 137.253906 " fill-opacity="1" fill-rule="nonzero"/><path fill="#000000" d="M 1026.109375 617.324219 C 1024.167969 621.6875 1021.808594 625.8125 1019.035156 629.699219 C 1002.1875 649.976562 985.03125 669.941406 967.871094 690.007812 C 965.6875 692.605469 963.085938 696.140625 960.28125 696.664062 C 957.699219 697.410156 955.070312 697.695312 952.386719 697.515625 C 949.707031 697.335938 947.140625 696.707031 944.679688 695.621094 C 943.160156 693.421875 942.105469 691.019531 941.511719 688.414062 C 940.917969 685.808594 940.832031 683.1875 941.25 680.546875 C 941.25 677.113281 944.992188 673.578125 947.488281 670.148438 C 963.710938 650.808594 980.074219 631.605469 996.574219 612.542969 C 999.75 608.285156 1003.632812 604.820312 1008.21875 602.144531 C 1017.371094 598.609375 1025.691406 604.433594 1026.109375 617.324219 Z M 1026.109375 617.324219 " fill-opacity="1" fill-rule="nonzero"/><path fill="#000000" d="M 1052.523438 588.109375 C 1051.769531 588.113281 1051.015625 588.082031 1050.265625 588.019531 C 1049.515625 587.953125 1048.769531 587.851562 1048.027344 587.714844 C 1047.289062 587.582031 1046.554688 587.410156 1045.828125 587.207031 C 1045.105469 587 1044.390625 586.761719 1043.6875 586.492188 C 1042.984375 586.21875 1042.296875 585.914062 1041.625 585.578125 C 1040.949219 585.242188 1040.292969 584.875 1039.652344 584.476562 C 1039.011719 584.078125 1038.394531 583.652344 1037.792969 583.195312 C 1037.195312 582.738281 1036.617188 582.253906 1036.066406 581.746094 C 1035.511719 581.234375 1034.984375 580.699219 1034.480469 580.136719 C 1033.976562 579.578125 1033.5 578.996094 1033.050781 578.390625 C 1032.601562 577.785156 1032.183594 577.160156 1031.792969 576.515625 C 1031.40625 575.871094 1031.046875 575.207031 1030.71875 574.53125 C 1030.390625 573.851562 1030.097656 573.160156 1029.832031 572.453125 C 1029.570312 571.746094 1029.34375 571.03125 1029.148438 570.300781 C 1028.953125 569.574219 1028.792969 568.839844 1028.667969 568.097656 C 1028.542969 567.355469 1028.449219 566.609375 1028.394531 565.855469 C 1028.425781 565.074219 1028.492188 564.296875 1028.59375 563.519531 C 1028.695312 562.746094 1028.832031 561.976562 1029.003906 561.210938 C 1029.175781 560.449219 1029.382812 559.695312 1029.621094 558.949219 C 1029.859375 558.207031 1030.132812 557.472656 1030.4375 556.753906 C 1030.742188 556.035156 1031.078125 555.328125 1031.449219 554.640625 C 1031.816406 553.949219 1032.21875 553.277344 1032.648438 552.625 C 1033.078125 551.96875 1033.535156 551.335938 1034.019531 550.726562 C 1034.507812 550.113281 1035.023438 549.523438 1035.5625 548.957031 C 1036.101562 548.390625 1036.664062 547.851562 1037.253906 547.335938 C 1037.84375 546.820312 1038.453125 546.335938 1039.085938 545.875 C 1039.71875 545.414062 1040.371094 544.984375 1041.042969 544.582031 C 1041.714844 544.183594 1042.402344 543.8125 1043.109375 543.472656 C 1043.8125 543.132812 1044.53125 542.828125 1045.265625 542.554688 C 1045.996094 542.28125 1046.742188 542.039062 1047.496094 541.832031 C 1048.25 541.625 1049.011719 541.453125 1049.78125 541.316406 C 1050.550781 541.175781 1051.328125 541.074219 1052.105469 541.003906 C 1052.863281 540.953125 1053.621094 540.9375 1054.378906 540.96875 C 1055.136719 540.996094 1055.890625 541.066406 1056.640625 541.179688 C 1057.390625 541.292969 1058.132812 541.445312 1058.867188 541.636719 C 1059.601562 541.828125 1060.324219 542.0625 1061.03125 542.335938 C 1061.738281 542.605469 1062.429688 542.914062 1063.105469 543.261719 C 1063.78125 543.609375 1064.433594 543.992188 1065.066406 544.414062 C 1065.699219 544.832031 1066.304688 545.285156 1066.890625 545.769531 C 1067.472656 546.253906 1068.027344 546.769531 1068.554688 547.316406 C 1069.082031 547.863281 1069.574219 548.4375 1070.039062 549.039062 C 1070.503906 549.636719 1070.933594 550.261719 1071.328125 550.910156 C 1071.722656 551.558594 1072.082031 552.222656 1072.40625 552.910156 C 1072.726562 553.597656 1073.011719 554.300781 1073.257812 555.015625 C 1073.503906 555.734375 1073.707031 556.464844 1073.875 557.203125 C 1074.039062 557.945312 1074.164062 558.691406 1074.25 559.445312 C 1074.332031 560.199219 1074.375 560.957031 1074.378906 561.714844 C 1074.378906 562.472656 1074.339844 563.230469 1074.257812 563.984375 C 1074.308594 564.738281 1074.324219 565.492188 1074.300781 566.25 C 1074.277344 567.003906 1074.214844 567.753906 1074.117188 568.503906 C 1074.019531 569.253906 1073.882812 569.996094 1073.710938 570.730469 C 1073.535156 571.46875 1073.328125 572.191406 1073.082031 572.90625 C 1072.835938 573.621094 1072.554688 574.320312 1072.238281 575.007812 C 1071.921875 575.695312 1071.570312 576.363281 1071.1875 577.011719 C 1070.800781 577.664062 1070.386719 578.292969 1069.941406 578.902344 C 1069.492188 579.511719 1069.015625 580.097656 1068.511719 580.660156 C 1068.003906 581.222656 1067.472656 581.757812 1066.914062 582.265625 C 1066.355469 582.773438 1065.769531 583.25 1065.164062 583.699219 C 1064.554688 584.148438 1063.925781 584.566406 1063.277344 584.953125 C 1062.625 585.339844 1061.960938 585.691406 1061.273438 586.011719 C 1060.589844 586.328125 1059.890625 586.613281 1059.175781 586.863281 C 1058.464844 587.113281 1057.738281 587.324219 1057.003906 587.5 C 1056.269531 587.675781 1055.527344 587.816406 1054.777344 587.917969 C 1054.027344 588.019531 1053.277344 588.082031 1052.523438 588.109375 Z M 1052.523438 588.109375 " fill-opacity="1" fill-rule="nonzero"/></svg>