<svg xmlns="http://www.w3.org/2000/svg" xmlns:xlink="http://www.w3.org/1999/xlink" width="1920" zoomAndPan="magnify" viewBox="0 0 1440 809.999993" height="1080" preserveAspectRatio="xMidYMid meet" version="1.0"><path fill="#1f1e1f" d="M 854.40625 675.570312 C 853.90625 676.597656 853.332031 677.644531 852.691406 678.710938 C 852.496094 679.03125 852.265625 679.371094 852.058594 679.691406 C 851.585938 680.441406 851.113281 681.191406 850.589844 681.957031 C 850.285156 682.378906 849.957031 682.820312 849.640625 683.246094 C 849.144531 683.929688 848.65625 684.605469 848.113281 685.296875 C 847.734375 685.777344 847.328125 686.265625 846.933594 686.75 C 846.40625 687.410156 845.867188 688.070312 845.292969 688.738281 C 844.851562 689.253906 844.386719 689.777344 843.925781 690.292969 C 843.34375 690.945312 842.769531 691.601562 842.15625 692.261719 C 841.652344 692.804688 841.125 693.351562 840.597656 693.894531 C 839.984375 694.546875 839.359375 695.195312 838.714844 695.847656 C 838.152344 696.414062 837.574219 696.988281 837 697.5625 C 836.339844 698.203125 835.683594 698.851562 835 699.507812 C 834.386719 700.085938 833.765625 700.671875 833.136719 701.265625 C 832.445312 701.910156 831.734375 702.558594 831.023438 703.210938 C 830.363281 703.8125 829.699219 704.414062 829.023438 705.015625 C 828.300781 705.660156 827.566406 706.308594 826.828125 706.953125 C 826.121094 707.570312 825.414062 708.1875 824.6875 708.804688 C 823.941406 709.445312 823.179688 710.089844 822.410156 710.734375 C 821.660156 711.363281 820.914062 711.988281 820.15625 712.617188 C 819.386719 713.25 818.609375 713.882812 817.828125 714.519531 C 817.039062 715.160156 816.242188 715.804688 815.4375 716.457031 C 814.65625 717.074219 813.863281 717.695312 813.074219 718.320312 C 812.246094 718.972656 811.417969 719.628906 810.574219 720.277344 C 809.789062 720.894531 808.980469 721.507812 808.175781 722.125 C 807.308594 722.789062 806.445312 723.449219 805.574219 724.113281 C 804.800781 724.695312 804.015625 725.277344 803.238281 725.855469 C 802.3125 726.550781 801.390625 727.242188 800.453125 727.9375 C 799.78125 728.433594 799.101562 728.925781 798.421875 729.417969 C 794.445312 732.328125 790.398438 735.210938 786.320312 738.054688 C 785.855469 738.375 785.398438 738.703125 784.9375 739.019531 C 783.773438 739.824219 782.609375 740.625 781.441406 741.425781 C 780.828125 741.839844 780.222656 742.265625 779.613281 742.683594 C 778.5 743.433594 777.394531 744.183594 776.285156 744.929688 C 775.613281 745.382812 774.9375 745.835938 774.269531 746.289062 C 773.195312 747.007812 772.125 747.71875 771.054688 748.429688 C 770.351562 748.894531 769.644531 749.363281 768.949219 749.824219 C 767.90625 750.511719 766.871094 751.1875 765.832031 751.863281 C 765.109375 752.339844 764.382812 752.8125 763.660156 753.285156 C 762.640625 753.945312 761.628906 754.597656 760.621094 755.246094 C 759.890625 755.714844 759.171875 756.179688 758.453125 756.640625 C 757.445312 757.285156 756.457031 757.914062 755.464844 758.542969 C 754.75 759 754.035156 759.453125 753.328125 759.898438 C 752.335938 760.523438 751.359375 761.140625 750.386719 761.75 C 749.699219 762.175781 749.011719 762.605469 748.335938 763.03125 C 747.355469 763.632812 746.394531 764.238281 745.433594 764.832031 C 744.765625 765.242188 744.105469 765.648438 743.445312 766.054688 C 742.5 766.632812 741.558594 767.210938 740.632812 767.777344 C 739.988281 768.175781 739.355469 768.558594 738.722656 768.945312 C 737.796875 769.503906 736.878906 770.058594 735.980469 770.605469 C 735.367188 770.972656 734.773438 771.332031 734.167969 771.6875 C 733.289062 772.222656 732.402344 772.753906 731.539062 773.265625 C 730.929688 773.628906 730.339844 773.976562 729.746094 774.328125 C 728.917969 774.816406 728.089844 775.3125 727.292969 775.78125 C 726.6875 776.136719 726.105469 776.472656 725.519531 776.820312 C 724.769531 777.257812 724.011719 777.699219 723.292969 778.121094 C 722.632812 778.503906 722.007812 778.863281 721.371094 779.226562 C 720.753906 779.585938 720.113281 779.953125 719.511719 780.296875 C 719.484375 780.3125 719.457031 780.332031 719.421875 780.351562 C 681.785156 758.679688 600.660156 707.273438 585.105469 675.570312 C 576.042969 657.109375 574.714844 636.234375 581.367188 616.78125 C 588.015625 597.324219 601.847656 581.625 620.308594 572.566406 C 630.980469 567.332031 642.363281 564.683594 654.144531 564.683594 C 670.957031 564.683594 687.34375 570.261719 700.625 580.265625 C 697.160156 585.0625 694.046875 590.175781 691.382812 595.609375 C 688.023438 602.449219 690.851562 610.722656 697.695312 614.078125 C 704.539062 617.429688 712.808594 614.609375 716.167969 607.765625 C 719.699219 600.570312 724.257812 594.085938 729.640625 588.449219 C 729.667969 588.425781 729.695312 588.402344 729.722656 588.371094 C 737.820312 579.925781 747.757812 573.503906 758.613281 569.492188 C 758.679688 569.46875 758.742188 569.445312 758.804688 569.421875 C 759.914062 569.015625 761.039062 568.632812 762.175781 568.273438 C 762.300781 568.234375 762.429688 568.195312 762.550781 568.160156 C 763.664062 567.8125 764.773438 567.492188 765.894531 567.199219 C 766.023438 567.171875 766.140625 567.132812 766.265625 567.101562 C 767.410156 566.8125 768.558594 566.542969 769.714844 566.304688 C 769.8125 566.28125 769.902344 566.265625 770 566.246094 C 771.195312 566 772.394531 565.78125 773.597656 565.59375 C 773.65625 565.585938 773.714844 565.574219 773.773438 565.566406 C 775.015625 565.378906 776.269531 565.214844 777.523438 565.089844 C 777.546875 565.089844 777.5625 565.082031 777.585938 565.082031 C 779.128906 564.921875 780.667969 564.824219 782.210938 564.761719 C 782.691406 564.742188 783.179688 564.738281 783.667969 564.722656 C 784.847656 564.695312 786.035156 564.691406 787.214844 564.71875 C 787.550781 564.726562 787.878906 564.726562 788.207031 564.742188 C 789.636719 564.792969 791.066406 564.894531 792.488281 565.023438 C 792.890625 565.066406 793.289062 565.105469 793.683594 565.152344 C 795.167969 565.3125 796.644531 565.5 798.109375 565.75 C 798.570312 565.828125 799.027344 565.921875 799.484375 566.011719 C 800.328125 566.167969 801.160156 566.332031 801.996094 566.515625 C 802.609375 566.65625 803.21875 566.808594 803.832031 566.960938 C 804.515625 567.128906 805.195312 567.304688 805.871094 567.492188 C 806.527344 567.675781 807.1875 567.871094 807.839844 568.070312 C 808.488281 568.273438 809.132812 568.488281 809.78125 568.707031 C 810.425781 568.925781 811.0625 569.136719 811.699219 569.371094 C 812.410156 569.632812 813.113281 569.914062 813.828125 570.199219 C 814.382812 570.425781 814.9375 570.636719 815.484375 570.867188 C 816.550781 571.324219 817.613281 571.8125 818.667969 572.320312 C 818.84375 572.410156 819.03125 572.484375 819.207031 572.570312 C 837.664062 581.625 851.5 597.324219 858.152344 616.785156 C 864.796875 636.234375 863.46875 657.117188 854.40625 675.570312 Z M 1071.722656 493.308594 L 1035.71875 409.699219 C 1035.613281 409.46875 1035.515625 409.238281 1035.402344 409.011719 L 1024.890625 387.867188 C 1024.175781 384.90625 1023.375 381.953125 1022.492188 379.058594 C 1014.460938 352.902344 999.390625 329.796875 978.695312 311.855469 L 978.695312 93.585938 C 978.695312 85.964844 972.515625 79.78125 964.886719 79.78125 C 959.375 79.78125 954.636719 83.019531 952.421875 87.683594 C 951.574219 89.476562 951.082031 91.46875 951.082031 93.585938 L 951.082031 318.34375 C 951.082031 322.566406 953.015625 326.554688 956.332031 329.171875 C 975.308594 344.160156 989.050781 364.214844 996.085938 387.140625 C 996.9375 389.917969 997.691406 392.765625 998.34375 395.621094 C 998.585938 396.6875 998.957031 397.730469 999.445312 398.710938 L 1010.511719 420.960938 L 1046.359375 504.222656 C 1047.910156 507.820312 1047.96875 511.816406 1046.515625 515.460938 C 1045.070312 519.101562 1042.28125 521.960938 1038.6875 523.515625 C 1031.238281 526.710938 1022.585938 523.273438 1019.386719 515.835938 C 1019.257812 515.554688 1019.128906 515.273438 1018.988281 515 L 991.601562 461.597656 C 991.507812 461.417969 991.390625 461.265625 991.285156 461.097656 C 991.105469 460.761719 990.902344 460.445312 990.679688 460.132812 C 990.449219 459.789062 990.199219 459.449219 989.929688 459.128906 C 989.6875 458.835938 989.441406 458.554688 989.179688 458.285156 C 988.976562 458.070312 988.773438 457.863281 988.558594 457.667969 C 988.15625 457.3125 987.746094 456.976562 987.300781 456.667969 C 987.109375 456.523438 986.894531 456.390625 986.683594 456.253906 C 986.21875 455.953125 985.726562 455.671875 985.214844 455.425781 C 985.066406 455.359375 984.917969 455.300781 984.769531 455.234375 C 984.28125 455.027344 983.777344 454.84375 983.253906 454.691406 C 983.089844 454.640625 982.933594 454.585938 982.761719 454.539062 C 982.246094 454.40625 981.71875 454.296875 981.175781 454.21875 C 980.171875 454.078125 971.234375 452.738281 959.859375 448.335938 C 941.929688 441.398438 917.929688 426.832031 909.101562 397.328125 C 907.460938 391.839844 906.316406 385.859375 905.859375 379.285156 C 905.339844 371.675781 898.730469 365.941406 891.140625 366.460938 C 883.535156 366.984375 877.792969 373.574219 878.316406 381.179688 C 882.574219 442.90625 931.929688 470.714844 965.511719 479.214844 L 965.511719 644.964844 C 965.511719 653.058594 958.925781 659.640625 950.832031 659.640625 C 942.738281 659.640625 936.144531 653.058594 936.144531 644.964844 L 936.144531 517.789062 C 936.144531 510.167969 929.964844 503.992188 922.335938 503.992188 C 914.71875 503.992188 908.53125 510.167969 908.53125 517.789062 L 908.53125 676.121094 C 908.53125 684.214844 901.941406 690.796875 893.847656 690.796875 C 888.433594 690.796875 883.710938 687.84375 881.164062 683.472656 C 886.800781 670.59375 889.742188 656.953125 889.9375 643.21875 C 890.101562 631.351562 888.226562 619.417969 884.277344 607.851562 C 884.265625 607.824219 884.253906 607.800781 884.242188 607.777344 C 883.558594 605.769531 882.792969 603.804688 881.996094 601.863281 C 881.90625 601.632812 881.804688 601.40625 881.707031 601.175781 C 880.914062 599.289062 880.078125 597.429688 879.179688 595.601562 C 879.175781 595.589844 879.171875 595.582031 879.164062 595.566406 L 879.164062 516.21875 C 879.164062 508.597656 872.992188 502.417969 865.371094 502.414062 C 865.367188 502.414062 865.363281 502.414062 865.363281 502.414062 C 857.746094 502.414062 851.566406 508.585938 851.554688 516.203125 L 851.546875 519.363281 L 851.554688 560.742188 C 851.539062 560.726562 851.515625 560.710938 851.5 560.699219 C 850.058594 559.527344 848.589844 558.394531 847.085938 557.300781 C 846.910156 557.171875 846.730469 557.042969 846.554688 556.917969 C 845.21875 555.953125 843.863281 555.027344 842.480469 554.128906 C 842.15625 553.921875 841.84375 553.710938 841.519531 553.503906 C 840.253906 552.699219 838.964844 551.925781 837.65625 551.175781 C 837.25 550.9375 836.851562 550.691406 836.4375 550.457031 C 834.871094 549.582031 833.265625 548.738281 831.648438 547.9375 C 831.554688 547.886719 831.460938 547.835938 831.363281 547.785156 C 831.230469 547.71875 831.09375 547.664062 830.957031 547.605469 C 829.410156 546.847656 827.855469 546.136719 826.28125 545.464844 C 825.601562 545.175781 824.902344 544.910156 824.214844 544.636719 C 823.535156 544.363281 822.871094 544.078125 822.1875 543.820312 L 822.1875 516.21875 C 822.1875 508.597656 816.007812 502.414062 808.382812 502.414062 C 800.753906 502.414062 794.574219 508.597656 794.574219 516.21875 L 794.574219 537.484375 C 784.8125 536.613281 774.945312 537.125 765.210938 539.046875 L 765.210938 421.777344 C 765.210938 387.84375 779.875 355.519531 805.453125 333.085938 C 808.4375 330.46875 810.152344 326.6875 810.152344 322.714844 L 810.152344 13.800781 C 810.152344 6.179688 803.964844 0 796.34375 0 C 788.71875 0 782.539062 6.179688 782.539062 13.800781 L 782.539062 316.644531 C 753.902344 344.066406 737.597656 382.03125 737.597656 421.777344 L 737.597656 548.589844 C 731.222656 551.835938 725.238281 555.703125 719.722656 560.132812 C 714.390625 555.867188 708.648438 552.160156 702.613281 549.015625 L 702.613281 415.195312 C 702.613281 375.441406 686.3125 337.480469 657.679688 310.0625 L 657.679688 13.800781 C 657.679688 6.179688 651.496094 0 643.875 0 C 636.25 0 630.070312 6.179688 630.070312 13.800781 L 630.070312 316.125 C 630.070312 320.097656 631.78125 323.878906 634.765625 326.5 C 660.339844 348.933594 675.007812 381.257812 675.007812 415.195312 L 675.007812 539.214844 C 668.175781 537.816406 661.1875 537.078125 654.144531 537.078125 C 651.289062 537.078125 648.453125 537.238281 645.636719 537.460938 L 645.636719 509.628906 C 645.636719 502.007812 639.453125 495.832031 631.832031 495.832031 C 624.203125 495.832031 618.027344 502.007812 618.027344 509.628906 L 618.027344 543.570312 C 614.6875 544.8125 611.390625 546.199219 608.148438 547.785156 C 601.125 551.234375 594.617188 555.40625 588.660156 560.175781 L 588.660156 512.769531 L 588.65625 509.621094 C 588.652344 502.003906 582.472656 495.832031 574.851562 495.832031 C 574.851562 495.832031 574.847656 495.832031 574.847656 495.832031 C 567.222656 495.832031 561.046875 502.007812 561.046875 509.628906 L 561.046875 594.128906 C 558.8125 598.527344 556.863281 603.105469 555.238281 607.851562 C 547.144531 631.535156 547.78125 656.765625 556.84375 679.792969 C 554.175781 682.519531 550.464844 684.214844 546.363281 684.214844 C 538.265625 684.214844 531.679688 677.625 531.679688 669.535156 L 531.679688 511.207031 C 531.679688 503.585938 525.5 497.402344 517.875 497.402344 C 510.25 497.402344 504.070312 503.585938 504.070312 511.207031 L 504.070312 638.378906 C 504.070312 646.472656 497.480469 653.058594 489.382812 653.058594 C 481.289062 653.058594 474.699219 646.472656 474.699219 638.378906 L 474.699219 472.625 C 508.285156 464.128906 557.640625 436.320312 561.894531 374.59375 C 562.417969 366.988281 556.675781 360.398438 549.070312 359.875 C 541.488281 359.359375 534.875 365.09375 534.347656 372.695312 C 533.898438 379.269531 532.75 385.25 531.109375 390.742188 C 522.28125 420.246094 498.285156 434.816406 480.359375 441.746094 C 468.992188 446.144531 460.074219 447.484375 459.039062 447.628906 C 458.476562 447.707031 457.925781 447.828125 457.390625 447.964844 C 457.285156 447.992188 457.179688 448.03125 457.074219 448.058594 C 455.71875 448.449219 454.457031 449.035156 453.320312 449.785156 C 453.234375 449.835938 453.148438 449.894531 453.0625 449.953125 C 452.515625 450.332031 451.992188 450.75 451.503906 451.203125 C 451.417969 451.285156 451.335938 451.367188 451.25 451.457031 C 450.761719 451.929688 450.300781 452.433594 449.890625 452.976562 C 449.855469 453.023438 449.828125 453.074219 449.792969 453.121094 C 449.378906 453.679688 449.007812 454.273438 448.683594 454.890625 C 448.664062 454.933594 448.632812 454.96875 448.609375 455.007812 L 421.222656 508.414062 C 421.082031 508.683594 420.949219 508.964844 420.828125 509.25 C 417.625 516.683594 408.964844 520.128906 401.53125 516.933594 C 397.929688 515.378906 395.144531 512.519531 393.695312 508.878906 C 392.246094 505.230469 392.300781 501.242188 393.851562 497.636719 L 429.707031 414.375 L 440.769531 392.125 C 441.257812 391.144531 441.628906 390.105469 441.871094 389.03125 C 442.511719 386.214844 443.269531 383.363281 444.125 380.5625 C 451.15625 357.628906 464.90625 337.578125 483.882812 322.589844 C 487.199219 319.972656 489.128906 315.984375 489.128906 311.757812 L 489.128906 106.695312 C 489.128906 104.28125 488.507812 102.007812 487.414062 100.035156 C 485.0625 95.78125 480.53125 92.894531 475.324219 92.894531 C 467.703125 92.894531 461.519531 99.074219 461.519531 106.695312 L 461.519531 305.273438 C 440.824219 323.214844 425.746094 346.316406 417.722656 372.484375 C 416.835938 375.394531 416.03125 378.34375 415.328125 381.28125 L 404.816406 402.429688 C 404.703125 402.65625 404.59375 402.878906 404.496094 403.109375 L 368.492188 486.71875 C 364.027344 497.09375 363.867188 508.585938 368.042969 519.078125 C 372.222656 529.578125 380.234375 537.816406 390.617188 542.285156 C 411.882812 551.4375 436.605469 541.722656 445.984375 520.628906 L 447.089844 518.472656 L 447.089844 638.378906 C 447.089844 661.6875 466.0625 680.65625 489.382812 680.65625 C 494.847656 680.65625 500.070312 679.617188 504.867188 677.722656 C 508.691406 697.132812 525.84375 711.8125 546.363281 711.8125 C 555.558594 711.8125 564.070312 708.851562 571.019531 703.851562 C 607.5625 748.6875 700.105469 801.230469 712.496094 808.15625 C 712.503906 808.160156 712.511719 808.164062 712.515625 808.167969 C 712.566406 808.199219 712.628906 808.230469 712.675781 808.257812 C 712.90625 808.390625 713.15625 808.484375 713.390625 808.597656 C 713.664062 808.734375 713.929688 808.875 714.207031 808.992188 C 714.535156 809.121094 714.871094 809.214844 715.203125 809.324219 C 715.433594 809.402344 715.660156 809.488281 715.894531 809.546875 C 716.265625 809.644531 716.644531 809.707031 717.023438 809.773438 C 717.230469 809.8125 717.4375 809.867188 717.644531 809.894531 C 718.050781 809.949219 718.460938 809.960938 718.871094 809.972656 C 719.054688 809.980469 719.234375 810.007812 719.417969 810.007812 C 721.125 810.007812 722.847656 809.691406 724.5 809.03125 C 725.046875 808.816406 725.585938 808.566406 726.105469 808.273438 C 727.152344 807.691406 728.851562 806.742188 731.097656 805.46875 C 731.847656 805.042969 732.65625 804.582031 733.523438 804.085938 C 733.761719 803.949219 734.003906 803.8125 734.25 803.664062 C 734.761719 803.375 735.289062 803.070312 735.835938 802.757812 C 762.777344 787.21875 832.488281 745.117188 865.464844 707.402344 C 872.976562 714.21875 882.929688 718.402344 893.847656 718.402344 C 914.367188 718.402344 931.515625 703.714844 935.34375 684.3125 C 940.140625 686.203125 945.363281 687.242188 950.832031 687.242188 C 974.152344 687.242188 993.125 668.277344 993.125 644.964844 L 993.125 525.058594 L 994.226562 527.222656 C 1003.613281 548.3125 1028.34375 558.019531 1049.597656 548.863281 C 1059.972656 544.402344 1067.988281 536.160156 1072.164062 525.667969 C 1076.347656 515.175781 1076.191406 503.6875 1071.722656 493.308594 " fill-opacity="1" fill-rule="nonzero"/></svg>