<svg xmlns="http://www.w3.org/2000/svg" xmlns:xlink="http://www.w3.org/1999/xlink" width="500" zoomAndPan="magnify" viewBox="0 0 375 112.499997" height="150" preserveAspectRatio="xMidYMid meet" version="1.0"><defs><g/></defs><path fill="#000000" d="M 294.773438 39.050781 C 293.832031 39.988281 292.703125 40.5625 291.394531 40.777344 L 291.394531 42.0625 C 291.386719 42.34375 291.324219 42.617188 291.210938 42.875 C 291.097656 43.132812 290.9375 43.363281 290.738281 43.558594 C 290.535156 43.757812 290.300781 43.910156 290.039062 44.015625 C 289.777344 44.121094 289.503906 44.175781 289.222656 44.175781 C 288.941406 44.175781 288.667969 44.121094 288.40625 44.015625 C 288.144531 43.910156 287.910156 43.757812 287.707031 43.558594 C 287.503906 43.363281 287.347656 43.132812 287.234375 42.875 C 287.121094 42.617188 287.058594 42.34375 287.050781 42.0625 L 287.050781 40.777344 C 286.378906 40.667969 285.742188 40.449219 285.144531 40.117188 C 284.601562 39.839844 284.113281 39.484375 283.683594 39.050781 C 283.097656 38.46875 282.648438 37.796875 282.332031 37.03125 C 282.011719 36.269531 281.851562 35.476562 281.851562 34.648438 C 281.875 34.375 281.945312 34.113281 282.066406 33.863281 C 282.1875 33.617188 282.347656 33.398438 282.550781 33.210938 C 282.753906 33.023438 282.984375 32.878906 283.238281 32.78125 C 283.496094 32.679688 283.761719 32.628906 284.039062 32.628906 C 284.3125 32.628906 284.578125 32.679688 284.835938 32.78125 C 285.09375 32.878906 285.324219 33.023438 285.523438 33.210938 C 285.726562 33.398438 285.890625 33.617188 286.007812 33.863281 C 286.128906 34.113281 286.203125 34.375 286.222656 34.648438 C 286.222656 35.15625 286.398438 35.589844 286.753906 35.949219 C 287.117188 36.316406 287.554688 36.507812 288.070312 36.511719 L 290.386719 36.511719 C 290.632812 36.507812 290.871094 36.457031 291.097656 36.363281 C 291.324219 36.265625 291.523438 36.128906 291.695312 35.957031 C 291.871094 35.78125 292.003906 35.582031 292.101562 35.355469 C 292.199219 35.128906 292.246094 34.894531 292.253906 34.648438 C 292.257812 34.300781 292.160156 33.980469 291.96875 33.691406 C 291.910156 33.597656 291.84375 33.507812 291.765625 33.425781 C 291.398438 33.015625 290.9375 32.8125 290.386719 32.8125 L 288.070312 32.8125 C 287.03125 32.800781 286.058594 32.550781 285.140625 32.0625 C 284.597656 31.773438 284.109375 31.40625 283.683594 30.964844 L 283.574219 30.855469 C 282.691406 29.933594 282.148438 28.839844 281.945312 27.578125 C 281.878906 27.179688 281.855469 26.773438 281.871094 26.367188 C 281.882812 25.960938 281.9375 25.558594 282.03125 25.160156 C 282.125 24.765625 282.253906 24.382812 282.425781 24.011719 C 282.59375 23.640625 282.796875 23.289062 283.035156 22.960938 C 283.273438 22.628906 283.539062 22.324219 283.835938 22.046875 C 284.132812 21.769531 284.457031 21.523438 284.800781 21.3125 C 285.148438 21.097656 285.511719 20.917969 285.894531 20.777344 C 286.273438 20.632812 286.667969 20.53125 287.066406 20.464844 L 287.066406 19.070312 C 287.082031 18.785156 287.152344 18.515625 287.273438 18.261719 C 287.390625 18.003906 287.558594 17.78125 287.765625 17.585938 C 287.972656 17.394531 288.210938 17.25 288.476562 17.152344 C 288.742188 17.050781 289.015625 17.007812 289.296875 17.015625 C 289.582031 17.023438 289.851562 17.082031 290.113281 17.199219 C 290.371094 17.3125 290.597656 17.472656 290.796875 17.675781 C 290.992188 17.878906 291.144531 18.113281 291.25 18.375 C 291.355469 18.636719 291.40625 18.910156 291.40625 19.195312 L 291.40625 20.464844 C 292.625 20.679688 293.691406 21.210938 294.601562 22.046875 C 294.664062 22.09375 294.710938 22.15625 294.773438 22.203125 C 295.738281 23.167969 296.324219 24.320312 296.527344 25.667969 C 296.585938 25.972656 296.609375 26.28125 296.605469 26.59375 L 296.605469 26.96875 C 296.582031 27.257812 296.5 27.53125 296.367188 27.789062 C 296.234375 28.050781 296.054688 28.273438 295.832031 28.460938 C 295.609375 28.648438 295.359375 28.785156 295.082031 28.871094 C 294.804688 28.960938 294.523438 28.992188 294.234375 28.964844 C 293.941406 28.941406 293.667969 28.863281 293.410156 28.726562 C 293.152344 28.59375 292.929688 28.414062 292.742188 28.191406 C 292.554688 27.96875 292.417969 27.71875 292.328125 27.441406 C 292.242188 27.164062 292.210938 26.882812 292.234375 26.59375 C 292.238281 26.382812 292.199219 26.179688 292.128906 25.980469 C 292.027344 25.714844 291.882812 25.480469 291.6875 25.277344 C 291.324219 24.925781 290.890625 24.75 290.386719 24.742188 L 288.054688 24.742188 C 287.558594 24.75 287.128906 24.925781 286.773438 25.277344 L 286.757812 25.277344 C 286.644531 25.375 286.554688 25.488281 286.488281 25.621094 C 286.300781 25.917969 286.207031 26.242188 286.210938 26.59375 C 286.207031 27.078125 286.371094 27.5 286.695312 27.863281 C 287.066406 28.238281 287.515625 28.4375 288.042969 28.457031 L 290.375 28.457031 C 291.710938 28.441406 292.914062 28.828125 293.992188 29.617188 C 294.28125 29.804688 294.539062 30.023438 294.777344 30.277344 L 294.902344 30.417969 C 295.671875 31.21875 296.179688 32.167969 296.421875 33.253906 C 296.542969 33.710938 296.597656 34.175781 296.59375 34.648438 C 296.597656 35.871094 296.261719 36.996094 295.589844 38.019531 C 295.359375 38.394531 295.085938 38.738281 294.773438 39.050781 Z M 350.160156 98.695312 C 349.425781 100.195312 348.535156 101.59375 347.484375 102.890625 C 346.433594 104.1875 345.253906 105.347656 343.941406 106.378906 C 342.628906 107.410156 341.214844 108.28125 339.707031 108.992188 C 338.199219 109.703125 336.628906 110.234375 335 110.59375 C 333.035156 111.074219 331.039062 111.3125 329.015625 111.3125 C 324.492188 111.265625 320.238281 110.175781 316.25 108.035156 C 313.757812 106.695312 311.347656 105.210938 309.027344 103.585938 L 307.808594 102.785156 C 303.125 99.683594 298.472656 96.546875 293.804688 93.398438 L 290.96875 91.488281 C 290.386719 91.148438 289.867188 90.730469 289.410156 90.234375 C 288.957031 89.738281 288.582031 89.1875 288.296875 88.578125 C 288.007812 87.96875 287.816406 87.332031 287.722656 86.667969 C 287.628906 86 287.632812 85.332031 287.742188 84.667969 C 287.800781 84.21875 287.902344 83.777344 288.039062 83.34375 C 288.179688 82.914062 288.355469 82.496094 288.570312 82.097656 C 288.785156 81.695312 289.035156 81.320312 289.316406 80.964844 C 289.597656 80.609375 289.910156 80.28125 290.253906 79.984375 C 290.59375 79.683594 290.960938 79.417969 291.347656 79.183594 C 291.738281 78.953125 292.144531 78.757812 292.570312 78.597656 C 292.996094 78.4375 293.429688 78.316406 293.878906 78.238281 C 294.324219 78.15625 294.773438 78.117188 295.230469 78.117188 C 296.726562 78.21875 298.078125 78.714844 299.285156 79.605469 C 300.742188 80.59375 302.214844 81.582031 303.71875 82.601562 L 304.34375 83.023438 L 302.605469 77.160156 C 300.664062 70.65625 298.730469 64.15625 296.8125 57.664062 L 292.488281 61.988281 C 292.078125 62.441406 291.59375 62.796875 291.039062 63.054688 C 290.484375 63.316406 289.902344 63.453125 289.292969 63.476562 C 288.039062 63.414062 286.976562 62.929688 286.113281 62.019531 C 284.089844 60.125 273.832031 49.855469 260.140625 35.941406 C 259.605469 35.300781 259.109375 34.632812 258.652344 33.9375 C 258.199219 33.238281 257.785156 32.515625 257.417969 31.769531 C 257.046875 31.023438 256.726562 30.253906 256.449219 29.46875 C 256.175781 28.683594 255.949219 27.882812 255.769531 27.066406 C 255.589844 26.253906 255.460938 25.433594 255.382812 24.601562 C 255.300781 23.773438 255.273438 22.941406 255.292969 22.109375 C 255.316406 21.277344 255.386719 20.445312 255.507812 19.621094 C 255.628906 18.796875 255.800781 17.984375 256.019531 17.179688 C 256.242188 16.375 256.507812 15.589844 256.824219 14.816406 C 257.140625 14.046875 257.5 13.296875 257.90625 12.566406 C 258.3125 11.839844 258.761719 11.140625 259.25 10.464844 C 259.742188 9.792969 260.269531 9.152344 260.839844 8.542969 C 261.40625 7.933594 262.011719 7.359375 262.648438 6.824219 C 263.285156 6.289062 263.953125 5.792969 264.652344 5.335938 C 265.347656 4.882812 266.070312 4.46875 266.816406 4.101562 C 267.566406 3.734375 268.332031 3.414062 269.117188 3.136719 C 270.808594 2.519531 272.554688 2.136719 274.347656 1.984375 C 276.140625 1.832031 277.921875 1.917969 279.695312 2.238281 C 281.464844 2.5625 283.164062 3.109375 284.789062 3.882812 C 286.414062 4.660156 287.910156 5.632812 289.277344 6.804688 C 290.957031 5.421875 292.804688 4.316406 294.824219 3.496094 C 295.554688 3.210938 296.300781 2.964844 297.058594 2.761719 C 297.816406 2.558594 298.585938 2.398438 299.359375 2.285156 C 300.136719 2.167969 300.917969 2.097656 301.703125 2.070312 C 302.488281 2.042969 303.273438 2.0625 304.054688 2.125 C 304.839844 2.183594 305.617188 2.292969 306.386719 2.441406 C 307.15625 2.59375 307.917969 2.785156 308.667969 3.023438 C 309.414062 3.257812 310.148438 3.535156 310.867188 3.855469 C 311.582031 4.175781 312.28125 4.535156 312.957031 4.933594 C 313.632812 5.332031 314.285156 5.769531 314.914062 6.242188 C 315.539062 6.714844 316.140625 7.222656 316.707031 7.761719 C 317.277344 8.304688 317.816406 8.875 318.320312 9.476562 C 318.824219 10.078125 319.292969 10.707031 319.730469 11.363281 C 320.164062 12.019531 320.558594 12.695312 320.914062 13.394531 C 321.269531 14.097656 321.585938 14.8125 321.863281 15.550781 C 322.136719 16.285156 322.371094 17.035156 322.5625 17.796875 C 322.753906 18.558594 322.898438 19.332031 323.003906 20.109375 C 323.035156 20.265625 323.050781 20.40625 323.082031 20.5625 L 323.160156 21.082031 L 323.160156 24.277344 L 322.988281 25.40625 C 322.859375 26.175781 322.734375 26.976562 322.53125 27.773438 C 322.09375 29.585938 321.417969 31.300781 320.503906 32.921875 C 319.585938 34.542969 318.46875 36.007812 317.144531 37.320312 C 316 38.480469 312.101562 42.382812 308.652344 45.8125 L 308.574219 45.890625 L 308.371094 46.097656 C 308.714844 47.097656 309.09375 48.257812 309.53125 49.605469 C 309.859375 50.640625 310.109375 51.488281 310.265625 52.066406 L 311.097656 54.886719 C 311.804688 54.269531 312.597656 53.792969 313.476562 53.460938 C 314.355469 53.128906 315.265625 52.964844 316.203125 52.960938 C 317.210938 52.941406 318.175781 53.132812 319.097656 53.53125 C 320.023438 53.929688 320.824219 54.503906 321.5 55.25 C 322.199219 54.492188 323.019531 53.902344 323.960938 53.480469 C 324.902344 53.058594 325.886719 52.835938 326.917969 52.820312 C 327.960938 52.757812 328.960938 52.929688 329.921875 53.332031 C 330.886719 53.730469 331.710938 54.324219 332.402344 55.109375 C 333.113281 54.351562 333.9375 53.75 334.875 53.304688 C 335.835938 52.859375 336.84375 52.632812 337.898438 52.621094 C 338.957031 52.609375 339.96875 52.816406 340.9375 53.242188 C 341.875 53.660156 342.679688 54.253906 343.351562 55.027344 C 344.027344 55.796875 344.503906 56.675781 344.789062 57.664062 C 347.078125 65.167969 349.425781 72.929688 351.636719 80.734375 C 352.09375 82.207031 352.410156 83.710938 352.578125 85.246094 C 352.75 86.78125 352.769531 88.320312 352.644531 89.859375 C 352.515625 91.398438 352.246094 92.910156 351.828125 94.394531 C 351.410156 95.882812 350.855469 97.316406 350.164062 98.695312 Z M 295.464844 53.132812 C 295.355469 52.773438 295.246094 52.398438 295.132812 52.023438 L 294.335938 49.339844 C 294.101562 48.558594 293.960938 47.757812 293.914062 46.945312 C 293.90625 46.535156 293.9375 46.128906 294 45.722656 C 294.066406 45.320312 294.167969 44.921875 294.300781 44.535156 C 294.4375 44.148438 294.601562 43.777344 294.804688 43.421875 C 295.003906 43.0625 295.230469 42.726562 295.492188 42.410156 C 295.75 42.089844 296.035156 41.800781 296.34375 41.53125 C 296.652344 41.265625 296.984375 41.027344 297.335938 40.816406 C 297.6875 40.609375 298.054688 40.429688 298.4375 40.285156 C 298.820312 40.140625 299.210938 40.03125 299.613281 39.953125 C 300.527344 39.734375 301.449219 39.691406 302.378906 39.820312 C 303.308594 39.953125 304.183594 40.246094 305.003906 40.707031 C 305.585938 41.078125 306.078125 41.550781 306.476562 42.117188 C 308.121094 40.472656 309.765625 38.808594 311.144531 37.445312 L 314.070312 34.515625 C 316.242188 32.386719 317.707031 29.855469 318.472656 26.914062 C 318.644531 26.269531 318.777344 25.617188 318.867188 24.953125 C 318.9375 24.417969 318.984375 23.878906 319.003906 23.339844 C 319.019531 22.800781 319.015625 22.261719 318.980469 21.71875 C 318.945312 21.179688 318.886719 20.644531 318.800781 20.109375 C 318.714844 19.578125 318.601562 19.046875 318.464844 18.527344 C 318.324219 18.003906 318.160156 17.488281 317.972656 16.980469 C 317.785156 16.476562 317.570312 15.980469 317.332031 15.492188 C 317.09375 15.007812 316.835938 14.535156 316.550781 14.074219 C 316.265625 13.613281 315.960938 13.167969 315.632812 12.738281 C 315.308594 12.308594 314.957031 11.894531 314.589844 11.5 C 314.222656 11.105469 313.835938 10.726562 313.429688 10.371094 C 313.027344 10.011719 312.605469 9.675781 312.167969 9.359375 C 311.726562 9.042969 311.277344 8.746094 310.808594 8.476562 C 310.34375 8.203125 309.863281 7.953125 309.371094 7.730469 C 308.878906 7.503906 308.378906 7.304688 307.867188 7.128906 C 307.355469 6.953125 306.839844 6.804688 306.3125 6.679688 C 305.785156 6.554688 305.257812 6.453125 304.722656 6.382812 C 303.488281 6.199219 302.253906 6.164062 301.011719 6.265625 C 299.769531 6.371094 298.558594 6.617188 297.375 7 C 296.1875 7.386719 295.0625 7.902344 293.996094 8.546875 C 292.933594 9.191406 291.953125 9.945312 291.0625 10.816406 C 290.960938 10.957031 290.84375 11.085938 290.710938 11.199219 C 290.578125 11.3125 290.4375 11.410156 290.28125 11.488281 C 290.125 11.566406 289.964844 11.625 289.796875 11.667969 C 289.625 11.707031 289.453125 11.726562 289.28125 11.726562 C 289.105469 11.726562 288.933594 11.703125 288.765625 11.664062 C 288.597656 11.621094 288.4375 11.558594 288.28125 11.480469 C 288.128906 11.398438 287.984375 11.300781 287.851562 11.1875 C 287.722656 11.070312 287.605469 10.945312 287.507812 10.800781 C 285.4375 8.777344 283.003906 7.394531 280.207031 6.648438 C 278.808594 6.285156 277.390625 6.101562 275.945312 6.101562 C 275.042969 6.101562 274.148438 6.179688 273.257812 6.328125 C 272.371094 6.476562 271.5 6.699219 270.644531 6.992188 C 269.792969 7.285156 268.96875 7.644531 268.175781 8.070312 C 267.378906 8.5 266.625 8.988281 265.910156 9.539062 C 265.195312 10.089844 264.53125 10.695312 263.917969 11.355469 C 263.300781 12.015625 262.746094 12.71875 262.246094 13.46875 C 261.746094 14.222656 261.308594 15.007812 260.9375 15.832031 C 260.566406 16.652344 260.265625 17.5 260.03125 18.371094 C 259.695312 19.566406 259.503906 20.785156 259.449219 22.027344 C 259.394531 23.265625 259.480469 24.496094 259.710938 25.71875 C 259.941406 26.9375 260.304688 28.117188 260.808594 29.253906 C 261.308594 30.390625 261.933594 31.453125 262.679688 32.445312 L 266.390625 36.191406 C 272.484375 42.351562 288.617188 58.636719 289.308594 59.308594 C 289.292969 59.277344 289.339844 59.261719 289.417969 59.183594 C 290.152344 58.433594 290.90625 57.679688 291.65625 56.941406 Z M 347.5625 80.875 L 341.171875 59.402344 C 341.078125 59.078125 340.964844 58.757812 340.824219 58.449219 C 340.640625 57.980469 340.351562 57.585938 339.957031 57.273438 C 339.5625 56.960938 339.117188 56.765625 338.617188 56.691406 C 338.015625 56.59375 337.425781 56.644531 336.851562 56.84375 C 336.273438 57.039062 335.777344 57.359375 335.359375 57.804688 C 334.988281 58.230469 334.753906 58.71875 334.652344 59.269531 C 334.554688 59.824219 334.601562 60.363281 334.796875 60.894531 L 335.265625 62.460938 C 335.65625 63.761719 336.046875 65.0625 336.425781 66.378906 C 336.527344 66.710938 336.542969 67.042969 336.472656 67.382812 C 336.402344 67.722656 336.257812 68.027344 336.03125 68.289062 C 335.792969 68.542969 335.511719 68.726562 335.179688 68.839844 C 334.847656 68.949219 334.511719 68.976562 334.167969 68.917969 C 333.769531 68.851562 333.421875 68.679688 333.128906 68.398438 C 332.835938 68.117188 332.652344 67.777344 332.570312 67.382812 L 332.226562 66.253906 C 331.523438 63.839844 330.800781 61.410156 330.066406 59.011719 C 329.933594 58.613281 329.730469 58.257812 329.457031 57.9375 C 329.183594 57.621094 328.863281 57.363281 328.492188 57.171875 C 328.121094 56.976562 327.726562 56.859375 327.308594 56.820312 C 326.890625 56.777344 326.480469 56.820312 326.082031 56.9375 C 325.679688 57.054688 325.3125 57.246094 324.984375 57.507812 C 324.65625 57.765625 324.390625 58.078125 324.183594 58.445312 C 323.976562 58.808594 323.84375 59.199219 323.789062 59.613281 C 323.734375 60.027344 323.757812 60.441406 323.863281 60.84375 C 324.394531 62.726562 324.957031 64.589844 325.507812 66.457031 L 326.257812 68.933594 C 326.328125 69.148438 326.386719 69.367188 326.429688 69.589844 C 326.5 69.972656 326.460938 70.339844 326.3125 70.699219 C 326.167969 71.058594 325.9375 71.347656 325.621094 71.570312 C 325.304688 71.792969 324.957031 71.914062 324.570312 71.933594 C 324.183594 71.953125 323.820312 71.867188 323.484375 71.675781 C 322.996094 71.296875 322.65625 70.808594 322.46875 70.21875 C 321.355469 66.597656 320.273438 62.976562 319.226562 59.324219 C 319.105469 58.820312 318.875 58.371094 318.53125 57.984375 C 318.1875 57.59375 317.769531 57.308594 317.285156 57.132812 C 316.742188 56.957031 316.191406 56.910156 315.628906 56.996094 C 315.066406 57.082031 314.550781 57.289062 314.085938 57.617188 C 313.808594 57.804688 313.570312 58.035156 313.367188 58.304688 C 313.167969 58.578125 313.015625 58.871094 312.914062 59.195312 C 312.816406 59.515625 312.769531 59.84375 312.78125 60.183594 C 312.789062 60.519531 312.855469 60.84375 312.976562 61.160156 C 313.570312 63.195312 314.183594 65.234375 314.777344 67.273438 L 316.296875 72.351562 C 316.441406 72.753906 316.449219 73.160156 316.320312 73.566406 C 316.1875 73.976562 315.945312 74.300781 315.589844 74.542969 C 315.238281 74.816406 314.839844 74.957031 314.394531 74.957031 C 313.945312 74.957031 313.546875 74.816406 313.195312 74.542969 C 312.816406 74.148438 312.550781 73.691406 312.394531 73.164062 C 310.171875 65.746094 307.957031 58.332031 305.753906 50.925781 L 305.597656 50.421875 L 305.253906 49.230469 L 304.375 46.285156 C 304.359375 46.238281 304.34375 46.175781 304.328125 46.128906 C 304.300781 46.011719 304.265625 45.894531 304.21875 45.785156 C 304.097656 45.453125 303.933594 45.152344 303.71875 44.875 C 303.429688 44.515625 303.074219 44.234375 302.65625 44.039062 C 302.238281 43.839844 301.800781 43.742188 301.335938 43.746094 C 300.792969 43.75 300.273438 43.871094 299.777344 44.109375 C 299.285156 44.34375 298.867188 44.671875 298.519531 45.09375 C 298.207031 45.519531 298.015625 45.992188 297.941406 46.515625 C 297.871094 47.039062 297.925781 47.546875 298.109375 48.039062 L 298.675781 49.921875 C 298.722656 50.0625 298.753906 50.203125 298.800781 50.34375 C 299.207031 51.644531 299.597656 52.960938 299.976562 54.261719 L 300.023438 54.449219 C 300.757812 56.878906 301.480469 59.292969 302.199219 61.722656 L 308.699219 83.601562 C 309.042969 84.746094 309.390625 85.890625 309.71875 87.035156 C 309.804688 87.257812 309.851562 87.492188 309.855469 87.730469 C 309.859375 87.972656 309.824219 88.207031 309.746094 88.433594 C 309.664062 88.660156 309.550781 88.867188 309.398438 89.050781 C 309.242188 89.238281 309.0625 89.390625 308.855469 89.511719 C 308.484375 89.714844 308.089844 89.800781 307.667969 89.761719 C 307.242188 89.726562 306.867188 89.574219 306.539062 89.308594 C 304.296875 87.789062 302.058594 86.277344 299.816406 84.777344 L 296.875 82.789062 C 296.152344 82.234375 295.34375 82.035156 294.445312 82.191406 C 293.757812 82.34375 293.167969 82.667969 292.675781 83.171875 C 292.183594 83.675781 291.871094 84.273438 291.734375 84.964844 C 291.671875 85.28125 291.660156 85.59375 291.695312 85.914062 C 291.734375 86.230469 291.820312 86.535156 291.953125 86.824219 C 292.085938 87.113281 292.261719 87.375 292.480469 87.609375 C 292.695312 87.84375 292.945312 88.039062 293.222656 88.195312 L 297.65625 91.171875 C 301.023438 93.429688 304.382812 95.679688 307.726562 97.929688 C 308.464844 98.429688 309.199219 98.929688 309.9375 99.417969 C 312.082031 100.875 314.292969 102.378906 316.546875 103.679688 C 318.996094 105.1875 321.628906 106.222656 324.445312 106.785156 C 327.265625 107.351562 330.09375 107.40625 332.929688 106.957031 C 333.855469 106.804688 334.761719 106.585938 335.652344 106.300781 C 336.542969 106.015625 337.410156 105.664062 338.246094 105.246094 C 339.085938 104.832031 339.886719 104.351562 340.652344 103.816406 C 341.421875 103.277344 342.144531 102.6875 342.820312 102.042969 C 343.496094 101.394531 344.125 100.703125 344.695312 99.960938 C 345.269531 99.222656 345.785156 98.441406 346.242188 97.625 C 346.699219 96.808594 347.089844 95.960938 347.417969 95.085938 C 347.746094 94.207031 348.007812 93.3125 348.203125 92.394531 C 348.996094 88.5 348.78125 84.660156 347.5625 80.875 Z M 347.5625 80.875 " fill-opacity="1" fill-rule="nonzero"/><g fill="#000000" fill-opacity="1"><g transform="translate(21.418356, 74.025003)"><g><path d="M 16.65625 0.5 C 13.800781 0.5 11.328125 -0.148438 9.234375 -1.453125 C 7.148438 -2.765625 5.539062 -4.738281 4.40625 -7.375 C 3.269531 -10.007812 2.703125 -13.269531 2.703125 -17.15625 C 2.703125 -21.0625 3.378906 -24.332031 4.734375 -26.96875 C 6.097656 -29.613281 7.988281 -31.578125 10.40625 -32.859375 C 12.820312 -34.148438 15.628906 -34.796875 18.828125 -34.796875 C 22.109375 -34.796875 24.90625 -34.1875 27.21875 -32.96875 C 29.539062 -31.75 31.171875 -29.9375 32.109375 -27.53125 L 27.15625 -24.53125 L 26.5625 -24.546875 C 25.863281 -26.078125 24.875 -27.191406 23.59375 -27.890625 C 22.320312 -28.597656 20.734375 -28.953125 18.828125 -28.953125 C 15.867188 -28.953125 13.601562 -28.015625 12.03125 -26.140625 C 10.46875 -24.273438 9.6875 -21.28125 9.6875 -17.15625 C 9.6875 -13.007812 10.414062 -9.992188 11.875 -8.109375 C 13.34375 -6.234375 15.507812 -5.296875 18.375 -5.296875 C 20.84375 -5.296875 22.664062 -5.851562 23.84375 -6.96875 C 25.019531 -8.082031 25.609375 -9.738281 25.609375 -11.9375 L 25.609375 -13.421875 L 17.484375 -13.421875 L 17.484375 -18.9375 L 32.34375 -18.9375 L 32.34375 0 L 25.859375 0 L 25.859375 -4.59375 L 25.375 -4.671875 C 24.664062 -3.023438 23.59375 -1.75 22.15625 -0.84375 C 20.726562 0.0507812 18.894531 0.5 16.65625 0.5 Z M 16.65625 0.5 "/></g></g><g transform="translate(57.207998, 74.025003)"><g><path d="M 6.96875 -28.984375 C 5.789062 -28.984375 4.832031 -29.335938 4.09375 -30.046875 C 3.363281 -30.765625 3 -31.6875 3 -32.8125 C 3 -33.914062 3.363281 -34.820312 4.09375 -35.53125 C 4.832031 -36.25 5.789062 -36.609375 6.96875 -36.609375 C 7.75 -36.609375 8.441406 -36.441406 9.046875 -36.109375 C 9.660156 -35.785156 10.132812 -35.335938 10.46875 -34.765625 C 10.8125 -34.191406 10.984375 -33.539062 10.984375 -32.8125 C 10.984375 -32.070312 10.8125 -31.410156 10.46875 -30.828125 C 10.132812 -30.253906 9.660156 -29.800781 9.046875 -29.46875 C 8.441406 -29.144531 7.75 -28.984375 6.96875 -28.984375 Z M 3.734375 0 L 3.734375 -25.890625 L 10.234375 -25.890625 L 10.234375 0 Z M 3.734375 0 "/></g></g><g transform="translate(71.148357, 74.025003)"><g><path d="M 17.8125 0 L 10.0625 0 L 0.5 -25.890625 L 7.296875 -25.890625 L 13.734375 -7.4375 L 14.265625 -7.4375 L 20.71875 -25.890625 L 27.359375 -25.890625 Z M 17.8125 0 "/></g></g><g transform="translate(98.982137, 74.025003)"><g><path d="M 25.578125 -11.46875 L 8.9375 -11.46875 C 9.125 -9.21875 9.765625 -7.578125 10.859375 -6.546875 C 11.960938 -5.523438 13.457031 -5.015625 15.34375 -5.015625 C 16.832031 -5.015625 18.035156 -5.289062 18.953125 -5.84375 C 19.878906 -6.40625 20.625 -7.25 21.1875 -8.375 L 21.6875 -8.375 L 26 -5.609375 C 25.15625 -3.796875 23.878906 -2.320312 22.171875 -1.1875 C 20.472656 -0.0625 18.195312 0.5 15.34375 0.5 C 12.664062 0.5 10.351562 -0.0078125 8.40625 -1.03125 C 6.457031 -2.050781 4.957031 -3.566406 3.90625 -5.578125 C 2.851562 -7.585938 2.328125 -10.039062 2.328125 -12.9375 C 2.328125 -15.875 2.878906 -18.347656 3.984375 -20.359375 C 5.097656 -22.378906 6.597656 -23.882812 8.484375 -24.875 C 10.378906 -25.875 12.507812 -26.375 14.875 -26.375 C 18.539062 -26.375 21.347656 -25.40625 23.296875 -23.46875 C 25.242188 -21.53125 26.21875 -18.679688 26.21875 -14.921875 C 26.21875 -13.566406 26.171875 -12.507812 26.078125 -11.75 Z M 20 -15.671875 C 19.9375 -17.648438 19.476562 -19.085938 18.625 -19.984375 C 17.769531 -20.878906 16.519531 -21.328125 14.875 -21.328125 C 11.59375 -21.328125 9.660156 -19.441406 9.078125 -15.671875 Z M 20 -15.671875 "/></g></g><g transform="translate(127.12101, 74.025003)"><g><path d="M 26.609375 -21.40625 L 26.609375 -34.3125 L 33.375 -34.3125 L 33.375 0 L 26.609375 0 L 26.609375 -15.625 L 11.234375 -15.625 L 11.234375 0 L 4.453125 0 L 4.453125 -34.3125 L 11.234375 -34.3125 L 11.234375 -21.40625 Z M 26.609375 -21.40625 "/></g></g><g transform="translate(164.97589, 74.025003)"><g><path d="M 15.046875 0.5 C 12.503906 0.5 10.273438 -0.0195312 8.359375 -1.0625 C 6.441406 -2.101562 4.957031 -3.628906 3.90625 -5.640625 C 2.851562 -7.648438 2.328125 -10.082031 2.328125 -12.9375 C 2.328125 -15.78125 2.851562 -18.207031 3.90625 -20.21875 C 4.957031 -22.238281 6.441406 -23.769531 8.359375 -24.8125 C 10.273438 -25.851562 12.503906 -26.375 15.046875 -26.375 C 17.578125 -26.375 19.800781 -25.851562 21.71875 -24.8125 C 23.632812 -23.769531 25.125 -22.238281 26.1875 -20.21875 C 27.25 -18.207031 27.78125 -15.78125 27.78125 -12.9375 C 27.78125 -10.082031 27.25 -7.648438 26.1875 -5.640625 C 25.125 -3.628906 23.632812 -2.101562 21.71875 -1.0625 C 19.800781 -0.0195312 17.578125 0.5 15.046875 0.5 Z M 15.046875 -5.015625 C 19.066406 -5.015625 21.078125 -7.65625 21.078125 -12.9375 C 21.078125 -15.664062 20.554688 -17.664062 19.515625 -18.9375 C 18.484375 -20.21875 16.992188 -20.859375 15.046875 -20.859375 C 11.023438 -20.859375 9.015625 -18.21875 9.015625 -12.9375 C 9.015625 -7.65625 11.023438 -5.015625 15.046875 -5.015625 Z M 15.046875 -5.015625 "/></g></g><g transform="translate(195.062658, 74.025003)"><g><path d="M 3.734375 10.484375 L 3.734375 -25.890625 L 10.234375 -25.890625 L 10.234375 -22.5 L 10.71875 -22.40625 C 11.488281 -23.726562 12.515625 -24.71875 13.796875 -25.375 C 15.078125 -26.039062 16.582031 -26.375 18.3125 -26.375 C 20.382812 -26.375 22.195312 -25.878906 23.75 -24.890625 C 25.3125 -23.910156 26.523438 -22.414062 27.390625 -20.40625 C 28.265625 -18.394531 28.703125 -15.90625 28.703125 -12.9375 C 28.703125 -9.976562 28.242188 -7.492188 27.328125 -5.484375 C 26.410156 -3.484375 25.140625 -1.984375 23.515625 -0.984375 C 21.890625 0.00390625 20.007812 0.5 17.875 0.5 C 16.269531 0.5 14.878906 0.226562 13.703125 -0.3125 C 12.523438 -0.851562 11.53125 -1.695312 10.71875 -2.84375 L 10.234375 -2.75 L 10.234375 10.484375 Z M 16.078125 -5.015625 C 18.015625 -5.015625 19.484375 -5.648438 20.484375 -6.921875 C 21.484375 -8.191406 21.984375 -10.195312 21.984375 -12.9375 C 21.984375 -15.664062 21.484375 -17.664062 20.484375 -18.9375 C 19.484375 -20.21875 18.015625 -20.859375 16.078125 -20.859375 C 14.265625 -20.859375 12.820312 -20.203125 11.75 -18.890625 C 10.6875 -17.578125 10.15625 -15.59375 10.15625 -12.9375 C 10.15625 -10.289062 10.6875 -8.304688 11.75 -6.984375 C 12.820312 -5.671875 14.265625 -5.015625 16.078125 -5.015625 Z M 16.078125 -5.015625 "/></g></g><g transform="translate(226.064701, 74.025003)"><g><path d="M 25.578125 -11.46875 L 8.9375 -11.46875 C 9.125 -9.21875 9.765625 -7.578125 10.859375 -6.546875 C 11.960938 -5.523438 13.457031 -5.015625 15.34375 -5.015625 C 16.832031 -5.015625 18.035156 -5.289062 18.953125 -5.84375 C 19.878906 -6.40625 20.625 -7.25 21.1875 -8.375 L 21.6875 -8.375 L 26 -5.609375 C 25.15625 -3.796875 23.878906 -2.320312 22.171875 -1.1875 C 20.472656 -0.0625 18.195312 0.5 15.34375 0.5 C 12.664062 0.5 10.351562 -0.0078125 8.40625 -1.03125 C 6.457031 -2.050781 4.957031 -3.566406 3.90625 -5.578125 C 2.851562 -7.585938 2.328125 -10.039062 2.328125 -12.9375 C 2.328125 -15.875 2.878906 -18.347656 3.984375 -20.359375 C 5.097656 -22.378906 6.597656 -23.882812 8.484375 -24.875 C 10.378906 -25.875 12.507812 -26.375 14.875 -26.375 C 18.539062 -26.375 21.347656 -25.40625 23.296875 -23.46875 C 25.242188 -21.53125 26.21875 -18.679688 26.21875 -14.921875 C 26.21875 -13.566406 26.171875 -12.507812 26.078125 -11.75 Z M 20 -15.671875 C 19.9375 -17.648438 19.476562 -19.085938 18.625 -19.984375 C 17.769531 -20.878906 16.519531 -21.328125 14.875 -21.328125 C 11.59375 -21.328125 9.660156 -19.441406 9.078125 -15.671875 Z M 20 -15.671875 "/></g></g></g></svg>