<?xml version='1.0' encoding='utf-8'?>
<svg xmlns="http://www.w3.org/2000/svg" enable-background="new 0 0 1920 1080" version="1.1" viewBox="0 0 1920 1080">
<style type="text/css">
	.st0{fill:#5CC8DE;}
	.st1{fill:#75A3D6;}
	.st2{fill:#FFFFFF;}
	.st3{fill:#3167B1;}
	.st4{fill:#58BA4B;}
	.st5{fill:#7CC359;}
	.st6{fill:#3E803D;}
	.st7{fill:#408A40;}
	.st8{fill:#F7FCFD;}
	.st9{opacity:0.59;fill:#F7FCFD;}
	.st10{fill:#266432;}
	.st11{fill:#5ABA47;}
	.st12{fill:#774E1F;}
	.st13{opacity:0.79;}
	.st14{opacity:0.68;}
	.st15{opacity:0.74;}
	.st16{fill:#ED1F24;}
</style>
<rect class="st0" x="-115.1" y="8.2" width="2225" height="1117.4"/>
<path class="st1" d="M458.2,824c33.7-57.2,406.7-769.3,406.7-769.3L1288.4,824H458.2z"/>
<path class="st1" d="M745.4,1102.3C779.1,1045.2,1152,333,1152,333l423.5,769.3H745.4z"/>
<polygon class="st2" points="785.6 205.7 840.9 170.5 873.3 205.7 904.9 170.5 947.5 204.9 864.8 54.7"/>
	<path class="st3" d="M65.4,957.4c33.7-57.2,406.7-769.3,406.7-769.3l423.5,769.3H65.4z"/>
	<polygon class="st2" points="392.9 339.1 448.2 303.9 480.5 339.1 512.1 303.9 554.8 338.3 472.1 188.1"/>
	<path class="st3" d="m1074.7 946.2c33.7-57.2 406.7-769.3 406.7-769.3l423.5 769.3h-830.2z"/>
	<polygon class="st2" points="1402.1 327.9 1457.4 292.7 1489.8 327.9 1521.4 292.7 1564 327.1 1481.3 176.9"/>
<path class="st4" d="m-0.5 1125.5c0-223.7 215.3-405.1 481-405.1s481 181.4 481 405.1"/>
<path class="st5" d="m686.4 880.9c0-223.7 215.3-405.1 481-405.1s481 181.4 481 405.1"/>
<path class="st6" d="m345.8 1125.5c0-247 200.2-447.2 447.2-447.2s447.2 200.2 447.2 447.2"/>
<path class="st7" d="m1053.8 1125.5c0-247 200.2-447.2 447.2-447.2s447.2 200.2 447.2 447.2"/>
<path class="st7" d="m1047.3 1125.5c0-247 200.2-447.2 447.2-447.2s447.2 200.2 447.2 447.2"/>
<path class="st8" d="m392.7 188.1c0.1-1.4 0.2-2.9 0.2-4.3 0-23.9-19.3-43.2-43.2-43.2-1.6 0-3.1 0.1-4.6 0.2-7.1-14.1-21.7-23.8-38.6-23.8-15.3 0-28.7 8-36.4 20-2.2-0.3-4.5-0.5-6.8-0.5-15.3 0-28.7 8-36.4 19.9-3.4-1-7-1.6-10.8-1.6-19.2 0-34.9 14.6-36.7 33.3h213.3z"/>
<path class="st9" d="m833 299.1c0.1-1.4 0.2-2.9 0.2-4.3 0-23.9-19.3-43.2-43.2-43.2-1.6 0-3.1 0.1-4.6 0.2-7.1-14.1-21.7-23.8-38.6-23.8-15.3 0-28.7 8-36.4 20-2.2-0.3-4.5-0.5-6.8-0.5-15.3 0-28.7 8-36.4 19.9-3.4-1-7-1.6-10.8-1.6-19.2 0-34.9 14.6-36.7 33.3h213.3z"/>
<path class="st9" d="m409.5 468.7c0.1-1.4 0.2-2.9 0.2-4.3 0-23.9-19.3-43.2-43.2-43.2-1.6 0-3.1 0.1-4.6 0.2-7.1-14.1-21.7-23.8-38.6-23.8-15.3 0-28.7 8-36.4 20-2.2-0.3-4.5-0.5-6.8-0.5-15.3 0-28.7 8-36.4 19.9-3.4-1-7-1.6-10.8-1.6-19.2 0-34.9 14.6-36.7 33.3h213.3z"/>
<path class="st8" d="m1273.9 165.7c0.1-1.4 0.2-2.9 0.2-4.3 0-23.9-19.3-43.2-43.2-43.2-1.6 0-3.1 0.1-4.6 0.2-7.1-14.1-21.7-23.8-38.6-23.8-15.3 0-28.7 8-36.4 20-2.2-0.3-4.5-0.5-6.8-0.5-15.3 0-28.7 8-36.4 19.9-3.4-1-7-1.6-10.8-1.6-19.2 0-34.9 14.6-36.7 33.3h213.3z"/>
<path class="st8" d="m1851.2 363.4c0.1-1.4 0.2-2.9 0.2-4.3 0-23.9-19.3-43.2-43.2-43.2-1.6 0-3.1 0.1-4.6 0.2-7.1-14.1-21.7-23.8-38.6-23.8-15.3 0-28.7 8-36.4 20-2.2-0.3-4.5-0.5-6.8-0.5-15.3 0-28.7 8-36.4 19.9-3.4-1-7-1.6-10.8-1.6-19.2 0-34.9 14.6-36.7 33.3h213.3z"/>
		<polygon class="st10" points="286.2 799 327.6 686.8 369 799"/>
		<polygon class="st11" points="327.6 799 327.6 686.8 369 799"/>
	<rect class="st12" x="318" y="799" width="16.8" height="14.1"/>
<g class="st13">
		<polygon class="st10" points="416.8 719 458.2 606.7 499.6 719"/>
		<polygon class="st11" points="458.2 719 458.2 606.7 499.6 719"/>
	<rect class="st12" x="448.6" y="719" width="16.8" height="14.1"/>
</g>
		<polygon class="st10" points="515.8 1000.4 584.4 778.4 652.9 1000.4"/>
		<polygon class="st11" points="584.3 1000.4 584.4 778.4 652.9 1000.4"/>
	<rect class="st12" x="568.4" y="1000.4" width="27.8" height="27.8"/>
		<polygon class="st10" points="986.2 686.8 1039.9 512.8 1093.6 686.8"/>
		<polygon class="st11" points="1039.9 686.8 1039.9 512.8 1093.6 686.8"/>
	<rect class="st12" x="1027.4" y="686.8" width="21.8" height="21.8"/>
<g class="st14">
		<polygon class="st10" points="841.9 558.7 878.8 439.3 915.6 558.7"/>
		<polygon class="st11" points="878.7 558.7 878.8 439.3 915.6 558.7"/>
	<rect class="st12" x="870.2" y="558.7" width="14.9" height="14.9"/>
</g>
<g class="st15">
		<polygon class="st10" points="1142.3 559.3 1177.7 444.7 1213.1 559.3"/>
		<polygon class="st11" points="1177.7 559.3 1177.7 444.7 1213.1 559.3"/>
	<rect class="st12" x="1169.5" y="559.3" width="14.4" height="14.4"/>
</g>
<g class="st15">
		<polygon class="st10" points="1286.5 540.8 1321.9 426.2 1357.3 540.8"/>
		<polygon class="st11" points="1321.9 540.8 1321.9 426.2 1357.3 540.8"/>
	<rect class="st12" x="1313.7" y="540.8" width="14.4" height="14.4"/>
</g>
<g class="st15">
		<polygon class="st10" points="1454.4 643 1489.8 528.3 1525.2 643"/>
		<polygon class="st11" points="1489.8 643 1489.8 528.3 1525.2 643"/>
	<rect class="st12" x="1481.5" y="643" width="14.4" height="14.4"/>
</g>
		<polygon class="st10" points="1327.7 900.1 1381.5 726.1 1435.2 900.1"/>
		<polygon class="st11" points="1381.5 900.1 1381.5 726.1 1435.2 900.1"/>
	<rect class="st12" x="1369" y="900.1" width="21.8" height="21.8"/>
		<polygon class="st10" points="1564 804.6 1617.8 630.7 1671.5 804.6"/>
		<polygon class="st11" points="1617.8 804.6 1617.8 630.7 1671.5 804.6"/>
	<rect class="st12" x="1605.3" y="804.6" width="21.8" height="21.8"/>
		<polygon class="st10" points="1764.2 1022.3 1818 848.3 1871.6 1022.3"/>
		<polygon class="st11" points="1817.9 1022.3 1818 848.3 1871.6 1022.3"/>
	<rect class="st12" x="1805.4" y="1022.3" width="21.8" height="21.8"/>
<circle class="st16" cx="1304.9" cy="599.8" r="6.9"/>
<circle class="st16" cx="1249.8" cy="606.7" r="6.9"/>
<circle class="st16" cx="1194.4" cy="626" r="6.9"/>
<circle class="st16" cx="1328.8" cy="657.6" r="6.9"/>
<circle class="st16" cx="1167.4" cy="685.3" r="6.9"/>
<circle class="st16" cx="726.5" cy="921.8" r="6.9"/>
<circle class="st16" cx="793" cy="880.9" r="6.9"/>
<circle class="st16" cx="1027.4" cy="1000.1" r="6.9"/>
<circle class="st16" cx="859.7" cy="1028.4" r="6.9"/>
<circle class="st16" cx="793" cy="1070.5" r="6.9"/>
<circle class="st16" cx="947.5" cy="1035.3" r="6.9"/>
<circle class="st16" cx="997.4" cy="1070.5" r="6.9"/>
<circle class="st16" cx="1004.4" cy="921.8" r="6.9"/>
<circle class="st16" cx="947.5" cy="867" r="6.9"/>
<circle class="st16" cx="859.7" cy="873.9" r="6.9"/>
<circle class="st16" cx="1240.3" cy="1044" r="6.9"/>
<circle class="st16" cx="1369" cy="1044" r="6.9"/>
<circle class="st16" cx="1126" cy="1051" r="6.9"/>
<circle class="st16" cx="1174.3" cy="985.4" r="6.9"/>
<circle class="st16" cx="1298" cy="978.4" r="6.9"/>
<circle class="st16" cx="878.7" cy="940.8" r="6.9"/>
<circle class="st16" cx="940.6" cy="964.3" r="6.9"/>
<circle class="st16" cx="800" cy="985.4" r="6.9"/>
<circle class="st16" cx="1096.8" cy="606.7" r="6.9"/>
<circle class="st16" cx="1274.1" cy="697.6" r="6.9"/>
<circle class="st16" cx="1249.8" cy="657.6" r="6.9"/>
<path d="m908.3 336c10.8 0 20.5 4.1 26.9 10.5 6.3-4.8 14.6-7.8 23.8-7.8 5.3 0 10.4 1 14.9 2.8-5.1-4.4-11.8-7.1-19.1-7.1-7.7 0-14.6 3-19.9 7.8-5.4-6.4-13.4-10.5-22.4-10.5-7.3 0-14 2.7-19.1 7.1 4.6-1.8 9.6-2.8 14.9-2.8z"/>
<path d="m841.2 355.1c10.8 0 20.5 4.1 26.9 10.5 6.3-4.8 14.6-7.8 23.8-7.8 5.3 0 10.4 1 14.9 2.8-5.1-4.4-11.8-7.1-19.1-7.1-7.7 0-14.6 3-19.9 7.8-5.4-6.4-13.4-10.5-22.4-10.5-7.3 0-14 2.7-19.1 7.1 4.6-1.8 9.6-2.8 14.9-2.8z"/>
<path d="m975.2 312.5c8.6 0 16.3 3.3 21.4 8.4 5-3.8 11.6-6.2 19-6.2 4.2 0 8.3 0.8 11.9 2.2-4.1-3.5-9.4-5.7-15.2-5.7-6.1 0-11.7 2.4-15.8 6.2-4.3-5.1-10.7-8.4-17.9-8.4-5.8 0-11.1 2.1-15.2 5.7 3.5-1.4 7.5-2.2 11.8-2.2z"/>
<path d="m1555.3 249.9c8.6 0 16.3 3.3 21.4 8.4 5-3.8 11.6-6.2 19-6.2 4.2 0 8.3 0.8 11.9 2.2-4.1-3.5-9.4-5.7-15.2-5.7-6.1 0-11.7 2.4-15.8 6.2-4.3-5.1-10.7-8.4-17.9-8.4-5.8 0-11.1 2.1-15.2 5.7 3.6-1.4 7.6-2.2 11.8-2.2z"/>
<path d="m1649.9 209.2c8.6 0 16.3 3.3 21.4 8.4 5-3.8 11.6-6.2 19-6.2 4.2 0 8.3 0.8 11.9 2.2-4.1-3.5-9.4-5.7-15.2-5.7-6.1 0-11.7 2.4-15.8 6.2-4.3-5.1-10.7-8.4-17.9-8.4-5.8 0-11.1 2.1-15.2 5.7 3.5-1.4 7.5-2.2 11.8-2.2z"/>
<path d="m985.1 361.5c8.2 0 15.6 3.1 20.5 8 4.8-3.7 11.1-5.9 18.1-5.9 4 0 7.9 0.8 11.3 2.1-3.9-3.4-9-5.4-14.5-5.4-5.8 0-11.1 2.2-15.1 5.9-4.1-4.9-10.2-8-17.1-8-5.6 0-10.6 2-14.5 5.4 3.4-1.3 7.2-2.1 11.3-2.1z"/>
<path d="m854.5 290.7c11.7 0 22.2 4.4 29.2 11.4 6.8-5.2 15.8-8.4 25.8-8.4 5.8 0 11.2 1.1 16.1 3-5.6-4.8-12.8-7.7-20.7-7.7-8.3 0-15.9 3.2-21.5 8.4-5.8-6.9-14.6-11.4-24.3-11.4-7.9 0-15.1 2.9-20.7 7.7 4.9-2 10.4-3 16.1-3z"/>
</svg>